<?xml version="1.0" encoding="UTF-8" standalone="no"?>
<!-- Created with Inkscape (http://www.inkscape.org/) -->

<svg
   width="180"
   height="180"
   viewBox="0 0 180 180"
   version="1.1"
   id="svg1"
   inkscape:version="1.4.3 (0d15f75, 2025-12-25)"
   sodipodi:docname="bCANNON.svg"
   xmlns:inkscape="http://www.inkscape.org/namespaces/inkscape"
   xmlns:sodipodi="http://sodipodi.sourceforge.net/DTD/sodipodi-0.dtd"
   xmlns="http://www.w3.org/2000/svg"
   xmlns:svg="http://www.w3.org/2000/svg">
  <sodipodi:namedview
     id="namedview1"
     pagecolor="#ffffff"
     bordercolor="#000000"
     borderopacity="0.25"
     inkscape:showpageshadow="2"
     inkscape:pageopacity="0.0"
     inkscape:pagecheckerboard="true"
     inkscape:deskcolor="#d1d1d1"
     inkscape:document-units="px"
     showborder="true"
     inkscape:zoom="3.49"
     inkscape:cx="90.114613"
     inkscape:cy="102.43553"
     inkscape:window-width="1920"
     inkscape:window-height="1009"
     inkscape:window-x="-8"
     inkscape:window-y="-8"
     inkscape:window-maximized="1"
     inkscape:current-layer="layer1" />
  <defs
     id="defs1">
    <inkscape:path-effect
       effect="spiro"
       id="path-effect1"
       is_visible="true"
       lpeversion="1" />
  </defs>
  <g
     inkscape:label="Layer 1"
     inkscape:groupmode="layer"
     id="layer1">
    <path
       d="m 160.64951,31.521997 -23.55272,5.052935 3.0015,10.581666 23.55272,-5.052935 z m 7.44079,26.927911 -23.46055,5.03316 1.56052,5.501518 -0.0922,0.01977 0.0268,0.09475 0.0972,-0.02085 1.41411,4.9854 23.45552,-5.032081 z m -20.45403,15.613747 -0.0972,0.02085 -1.41411,-4.9854 -12.10989,2.547766 12.08302,-2.642511 -1.56052,-5.501518 0.0922,-0.01978 -7.63175,-26.905455 -9.57178,13.288357 -0.0197,-0.06981 -48.3104,10.364375 -15.164636,-7.682587 9.192267,32.40697 5.036633,-1.059382 7.165439,-1.508156 -7.149881,1.563008 -5.030343,1.100356 9.19227,32.406992 10.015662,-13.90467 47.071929,-10.098681 15.86855,8.039421 -2.89966,-10.222623 0.0972,-0.02083 z m 4.85516,17.116666 2.923,10.304909 -0.12054,-0.0615 0.10219,0.36029 23.55273,-5.052934 -3.00185,-10.582915 z M 63.762238,52.571101 40.660316,57.527322 59.018682,122.24902 82.120605,117.2928 Z"
       style="fill:#000000;stroke:#ffffff;stroke-width:2.28672;stroke-dasharray:none"
       id="path8" />
    <rect
       style="fill:#000000;stroke:#ffffff;stroke-width:2.56142"
       id="rect1"
       width="93.007469"
       height="46.34494"
       x="-29.603601"
       y="102.02696"
       transform="matrix(0.98102281,-0.19389237,0.29928867,0.95416261,0,0)" />
    <path
       sodipodi:type="spiral"
       style="fill:#000000;fill-rule:evenodd;stroke:#ffffff"
       id="path1"
       sodipodi:cx="126.36912"
       sodipodi:cy="89.457176"
       sodipodi:expansion="1"
       sodipodi:revolution="5"
       sodipodi:radius="27.271965"
       sodipodi:argument="-30.005043"
       sodipodi:t0="0"
       d="m 126.36912,89.457176 c 0.13064,0.809956 -1.02735,0.575701 -1.3462,0.217129 -0.86406,-0.971709 -0.0775,-2.409305 0.91194,-2.909529 1.76991,-0.894785 3.8084,0.322892 4.47286,2.041014 0.97511,2.521414 -0.72229,5.231136 -3.17009,6.036188 -3.26253,1.073006 -6.66287,-1.120474 -7.59951,-4.299158 -1.17868,-4.00005 1.51788,-8.09904 5.42823,-9.162846 4.73595,-1.288411 9.53774,1.914812 10.72617,6.557302 1.40053,5.471013 -2.31143,10.978022 -7.68637,12.289504 -6.20558,1.51416 -12.41936,-2.707852 -13.85284,-8.815446 -1.6288,-6.939835 3.10413,-13.861438 9.94452,-15.416161 7.67388,-1.744164 15.30406,3.500302 16.97949,11.073588 1.86005,8.407782 -3.8964,16.747079 -12.20266,18.542819 -9.14157,1.97633 -18.19041,-4.29244 -20.10615,-13.331731 -2.09291,-9.87529 4.68845,-19.633987 14.46081,-21.669477 10.60894,-2.209743 21.07776,5.084405 23.2328,15.589874 2.32676,11.342547 -5.48034,22.521694 -16.71894,24.796134 -12.07612,2.44394 -23.96576,-5.87625 -26.35947,-17.848016 -2.56123,-12.809648 6.27215,-25.409933 18.97709,-27.922794 13.54316,-2.678647 26.8542,6.668025 29.48612,20.106162 2.79615,14.276644 -7.06388,28.298548 -21.23523,31.049448"
       transform="translate(7.4326648,39.077364)" />
    <path
       sodipodi:type="spiral"
       style="fill:#000000;fill-rule:evenodd;stroke:#ffffff"
       id="path1-8"
       sodipodi:cx="126.36912"
       sodipodi:cy="89.457176"
       sodipodi:expansion="1"
       sodipodi:revolution="5"
       sodipodi:radius="27.271965"
       sodipodi:argument="-30.005043"
       sodipodi:t0="0"
       d="m 126.36912,89.457176 c 0.13064,0.809956 -1.02735,0.575701 -1.3462,0.217129 -0.86406,-0.971709 -0.0775,-2.409305 0.91194,-2.909529 1.76991,-0.894785 3.8084,0.322892 4.47286,2.041014 0.97511,2.521414 -0.72229,5.231136 -3.17009,6.036188 -3.26253,1.073006 -6.66287,-1.120474 -7.59951,-4.299158 -1.17868,-4.00005 1.51788,-8.09904 5.42823,-9.162846 4.73595,-1.288411 9.53774,1.914812 10.72617,6.557302 1.40053,5.471013 -2.31143,10.978022 -7.68637,12.289504 -6.20558,1.51416 -12.41936,-2.707852 -13.85284,-8.815446 -1.6288,-6.939835 3.10413,-13.861438 9.94452,-15.416161 7.67388,-1.744164 15.30406,3.500302 16.97949,11.073588 1.86005,8.407782 -3.8964,16.747079 -12.20266,18.542819 -9.14157,1.97633 -18.19041,-4.29244 -20.10615,-13.331731 -2.09291,-9.87529 4.68845,-19.633987 14.46081,-21.669477 10.60894,-2.209743 21.07776,5.084405 23.2328,15.589874 2.32676,11.342547 -5.48034,22.521694 -16.71894,24.796134 -12.07612,2.44394 -23.96576,-5.87625 -26.35947,-17.848016 -2.56123,-12.809648 6.27215,-25.409933 18.97709,-27.922794 13.54316,-2.678647 26.8542,6.668025 29.48612,20.106162 2.79615,14.276644 -7.06388,28.298548 -21.23523,31.049448"
       transform="matrix(-1,0,0,1,262.20923,39.219014)" />
    <path
       sodipodi:type="spiral"
       style="fill:#000000;fill-rule:evenodd;stroke:#ffffff"
       id="path1-1"
       sodipodi:cx="126.36912"
       sodipodi:cy="89.457176"
       sodipodi:expansion="1"
       sodipodi:revolution="5"
       sodipodi:radius="27.271965"
       sodipodi:argument="-30.005043"
       sodipodi:t0="0"
       d="m 126.36912,89.457176 c 0.13064,0.809956 -1.02735,0.575701 -1.3462,0.217129 -0.86406,-0.971709 -0.0775,-2.409305 0.91194,-2.909529 1.76991,-0.894785 3.8084,0.322892 4.47286,2.041014 0.97511,2.521414 -0.72229,5.231136 -3.17009,6.036188 -3.26253,1.073006 -6.66287,-1.120474 -7.59951,-4.299158 -1.17868,-4.00005 1.51788,-8.09904 5.42823,-9.162846 4.73595,-1.288411 9.53774,1.914812 10.72617,6.557302 1.40053,5.471013 -2.31143,10.978022 -7.68637,12.289504 -6.20558,1.51416 -12.41936,-2.707852 -13.85284,-8.815446 -1.6288,-6.939835 3.10413,-13.861438 9.94452,-15.416161 7.67388,-1.744164 15.30406,3.500302 16.97949,11.073588 1.86005,8.407782 -3.8964,16.747079 -12.20266,18.542819 -9.14157,1.97633 -18.19041,-4.29244 -20.10615,-13.331731 -2.09291,-9.87529 4.68845,-19.633987 14.46081,-21.669477 10.60894,-2.209743 21.07776,5.084405 23.2328,15.589874 2.32676,11.342547 -5.48034,22.521694 -16.71894,24.796134 -12.07612,2.44394 -23.96576,-5.87625 -26.35947,-17.848016 -2.56123,-12.809648 6.27215,-25.409933 18.97709,-27.922794 13.54316,-2.678647 26.8542,6.668025 29.48612,20.106162 2.79615,14.276644 -7.06388,28.298548 -21.23523,31.049448"
       transform="matrix(1,0,0,-1,7.5786248,219.09103)" />
    <path
       sodipodi:type="spiral"
       style="fill:#000000;fill-rule:evenodd;stroke:#ffffff"
       id="path1-8-7"
       sodipodi:cx="126.36912"
       sodipodi:cy="89.457176"
       sodipodi:expansion="1"
       sodipodi:revolution="5"
       sodipodi:radius="27.271965"
       sodipodi:argument="-30.005043"
       sodipodi:t0="0"
       d="m 126.36912,89.457176 c 0.13064,0.809956 -1.02735,0.575701 -1.3462,0.217129 -0.86406,-0.971709 -0.0775,-2.409305 0.91194,-2.909529 1.76991,-0.894785 3.8084,0.322892 4.47286,2.041014 0.97511,2.521414 -0.72229,5.231136 -3.17009,6.036188 -3.26253,1.073006 -6.66287,-1.120474 -7.59951,-4.299158 -1.17868,-4.00005 1.51788,-8.09904 5.42823,-9.162846 4.73595,-1.288411 9.53774,1.914812 10.72617,6.557302 1.40053,5.471013 -2.31143,10.978022 -7.68637,12.289504 -6.20558,1.51416 -12.41936,-2.707852 -13.85284,-8.815446 -1.6288,-6.939835 3.10413,-13.861438 9.94452,-15.416161 7.67388,-1.744164 15.30406,3.500302 16.97949,11.073588 1.86005,8.407782 -3.8964,16.747079 -12.20266,18.542819 -9.14157,1.97633 -18.19041,-4.29244 -20.10615,-13.331731 -2.09291,-9.87529 4.68845,-19.633987 14.46081,-21.669477 10.60894,-2.209743 21.07776,5.084405 23.2328,15.589874 2.32676,11.342547 -5.48034,22.521694 -16.71894,24.796134 -12.07612,2.44394 -23.96576,-5.87625 -26.35947,-17.848016 -2.56123,-12.809648 6.27215,-25.409933 18.97709,-27.922794 13.54316,-2.678647 26.8542,6.668025 29.48612,20.106162 2.79615,14.276644 -7.06388,28.298548 -21.23523,31.049448"
       transform="rotate(180,131.17759,109.47469)" />
  </g>
</svg>
