<?xml version="1.0" encoding="UTF-8" standalone="no"?>
<!-- Created with Inkscape (http://www.inkscape.org/) -->

<svg
   width="180"
   height="180"
   viewBox="0 0 47.624999 47.625"
   version="1.1"
   id="svg1"
   inkscape:version="1.4.3 (0d15f75, 2025-12-25)"
   sodipodi:docname="bD.svg"
   xmlns:inkscape="http://www.inkscape.org/namespaces/inkscape"
   xmlns:sodipodi="http://sodipodi.sourceforge.net/DTD/sodipodi-0.dtd"
   xmlns="http://www.w3.org/2000/svg"
   xmlns:svg="http://www.w3.org/2000/svg">
  <sodipodi:namedview
     id="namedview1"
     pagecolor="#ffffff"
     bordercolor="#000000"
     borderopacity="0.25"
     inkscape:showpageshadow="2"
     inkscape:pageopacity="0.0"
     inkscape:pagecheckerboard="true"
     inkscape:deskcolor="#d1d1d1"
     inkscape:document-units="px"
     inkscape:zoom="4"
     inkscape:cx="96.625"
     inkscape:cy="92.375"
     inkscape:window-width="1920"
     inkscape:window-height="1009"
     inkscape:window-x="-8"
     inkscape:window-y="-8"
     inkscape:window-maximized="1"
     inkscape:current-layer="layer1" />
  <defs
     id="defs1">
    <inkscape:path-effect
       effect="bspline"
       id="path-effect10"
       is_visible="true"
       lpeversion="1.3"
       weight="33.333333"
       steps="2"
       helper_size="0"
       apply_no_weight="true"
       apply_with_weight="true"
       only_selected="false"
       uniform="false" />
    <inkscape:path-effect
       effect="bspline"
       id="path-effect9"
       is_visible="true"
       lpeversion="1.3"
       weight="33.333333"
       steps="2"
       helper_size="0"
       apply_no_weight="true"
       apply_with_weight="true"
       only_selected="false"
       uniform="false" />
    <inkscape:path-effect
       effect="bspline"
       id="path-effect8"
       is_visible="true"
       lpeversion="1.3"
       weight="33.333333"
       steps="2"
       helper_size="0"
       apply_no_weight="true"
       apply_with_weight="true"
       only_selected="false"
       uniform="false" />
    <inkscape:path-effect
       effect="bspline"
       id="path-effect7"
       is_visible="true"
       lpeversion="1.3"
       weight="33.333333"
       steps="2"
       helper_size="0"
       apply_no_weight="true"
       apply_with_weight="true"
       only_selected="false"
       uniform="false" />
    <inkscape:path-effect
       effect="bspline"
       id="path-effect6"
       is_visible="true"
       lpeversion="1.3"
       weight="33.333333"
       steps="2"
       helper_size="0"
       apply_no_weight="true"
       apply_with_weight="true"
       only_selected="false"
       uniform="false" />
    <inkscape:path-effect
       effect="bspline"
       id="path-effect5"
       is_visible="true"
       lpeversion="1.3"
       weight="33.333333"
       steps="2"
       helper_size="0"
       apply_no_weight="true"
       apply_with_weight="true"
       only_selected="false"
       uniform="false" />
    <inkscape:path-effect
       effect="bspline"
       id="path-effect4"
       is_visible="true"
       lpeversion="1.3"
       weight="33.333333"
       steps="2"
       helper_size="0"
       apply_no_weight="true"
       apply_with_weight="true"
       only_selected="false"
       uniform="false" />
    <inkscape:path-effect
       effect="bspline"
       id="path-effect1"
       is_visible="true"
       lpeversion="1.3"
       weight="33.333333"
       steps="2"
       helper_size="0"
       apply_no_weight="true"
       apply_with_weight="true"
       only_selected="false"
       uniform="false" />
    <inkscape:path-effect
       effect="bspline"
       id="path-effect6-4"
       is_visible="true"
       lpeversion="1.3"
       weight="33.333333"
       steps="2"
       helper_size="0"
       apply_no_weight="true"
       apply_with_weight="true"
       only_selected="false"
       uniform="false" />
    <inkscape:path-effect
       effect="bspline"
       id="path-effect8-8"
       is_visible="true"
       lpeversion="1.3"
       weight="33.333333"
       steps="2"
       helper_size="0"
       apply_no_weight="true"
       apply_with_weight="true"
       only_selected="false"
       uniform="false" />
    <inkscape:path-effect
       effect="bspline"
       id="path-effect10-7"
       is_visible="true"
       lpeversion="1.3"
       weight="33.333333"
       steps="2"
       helper_size="0"
       apply_no_weight="true"
       apply_with_weight="true"
       only_selected="false"
       uniform="false" />
  </defs>
  <g
     inkscape:label="Layer 1"
     inkscape:groupmode="layer"
     id="layer1">
    <path
       id="path1"
       style="fill:#000000;stroke:#ffffff;stroke-width:0.59907965;stroke-linecap:butt;stroke-linejoin:miter;stroke-opacity:1;stroke-dasharray:none"
       d="M 22.141303 8.0487268 C 22.09365 8.0464129 22.035932 8.0598834 21.95194 8.0917594 C 21.683168 8.1937625 21.145749 8.4830317 20.86883 8.8910494 C 20.591912 9.2990671 20.575491 9.8260733 20.82798 10.319093 C 21.080468 10.812112 21.601715 11.271125 22.122978 11.313623 C 22.154352 11.316181 22.185575 11.317195 22.216896 11.316811 C 20.609998 12.483464 19.003689 13.650559 17.693947 15.257478 C 16.382044 16.867047 15.367949 18.917779 15.235665 21.023442 C 15.103381 23.129106 15.852846 25.289825 17.065537 26.833237 C 17.376931 27.229554 17.718795 27.585207 18.085271 27.897496 C 17.052785 28.560297 16.016493 29.213237 14.825251 29.470176 C 13.60353 29.73369 12.218975 29.580674 11.037993 29.776186 C 9.8570103 29.971697 8.8796756 30.515567 8.2280914 30.932088 C 7.5765072 31.348609 7.2508616 31.637609 6.9250759 31.926618 L 8.1956401 33.813676 C 9.1241293 33.048653 10.052598 32.283635 11.078843 32.003121 C 12.105088 31.722607 13.229007 31.92662 14.304121 31.850116 C 15.379236 31.773612 16.405551 31.416482 17.179307 30.812952 C 17.943187 30.217125 18.460939 29.381323 18.975583 28.542187 C 19.826267 29.059674 20.766779 29.372922 21.740052 29.457027 C 22.976426 29.563869 24.265657 29.300922 25.40285 28.668097 C 25.917032 29.506463 26.434414 30.341585 27.197599 30.936869 C 27.971355 31.5404 28.99767 31.897131 30.072784 31.973635 C 31.147899 32.050139 32.271817 31.846126 33.298063 32.12664 C 34.324308 32.407154 35.252777 33.172172 36.181266 33.937195 L 37.45183 32.050138 C 37.126044 31.761129 36.800017 31.472128 36.148433 31.055607 C 35.496849 30.639086 34.519514 30.095216 33.338531 29.899705 C 32.157549 29.704194 30.772994 29.857209 29.551273 29.593696 C 28.373211 29.339599 27.346779 28.698136 26.325613 28.04293 C 26.493246 27.906581 26.655483 27.760788 26.811237 27.605034 C 28.200328 26.215943 29.082117 24.055272 29.004946 21.729097 C 28.927774 19.402922 27.891499 16.911405 26.60164 15.147506 C 25.314042 13.386698 23.773626 12.350882 22.23293 11.316412 C 22.716321 11.302948 23.18501 10.950697 23.44241 10.539834 C 23.719328 10.097815 23.752039 9.587941 23.507694 9.1799254 C 23.26335 8.7719097 22.742097 8.4657709 22.481469 8.2702648 C 22.302287 8.1358544 22.246139 8.0538174 22.141303 8.0487268 z "
       transform="matrix(1.3535654,0,0,1.2969376,-5.3386474,-4.8943321)" />
    <path
       style="fill:#ffffff;stroke:#ffffff;stroke-width:0.79374999;stroke-linecap:butt;stroke-linejoin:miter;stroke-opacity:1;stroke-dasharray:none"
       d="m 24.341666,17.528646 0.132292,7.9375"
       id="path10" />
    <path
       style="fill:#ffffff;stroke:#ffffff;stroke-width:0.79374999;stroke-linecap:butt;stroke-linejoin:miter;stroke-opacity:1;stroke-dasharray:none"
       d="m 19.909896,21.365104 8.731249,-0.132292"
       id="path11" />
    <path
       style="fill:#0000ff;stroke:#ffffff;stroke-width:0.79375;stroke-dasharray:none;fill-opacity:1"
       d="M 18.322396,15.279687 12.7,15.08125 l 3.638021,3.373437 -5.423959,2.182813 4.299479,0.926041 -4.43177,3.638021 5.027083,0.992188 -0.661458,-4.630209 1.389062,-3.175 z"
       id="path2" />
    <path
       style="fill:#0000ff;fill-opacity:1;stroke:#ffffff;stroke-width:0.79375;stroke-dasharray:none"
       d="m 31.363887,15.713942 5.622399,-0.198437 -3.638023,3.373438 5.423962,2.182813 -4.299481,0.926041 4.431772,3.638021 -5.027086,0.992188 0.661459,-4.630209 -1.389063,-3.175 z"
       id="path2-8" />
  </g>
</svg>
