<?xml version="1.0" encoding="UTF-8" standalone="no"?>
<!-- Created with Inkscape (http://www.inkscape.org/) -->

<svg
   width="180"
   height="180"
   viewBox="0 0 180 180"
   version="1.1"
   id="svg1"
   inkscape:version="1.4.3 (0d15f75, 2025-12-25)"
   sodipodi:docname="bFOOL.svg"
   xmlns:inkscape="http://www.inkscape.org/namespaces/inkscape"
   xmlns:sodipodi="http://sodipodi.sourceforge.net/DTD/sodipodi-0.dtd"
   xmlns="http://www.w3.org/2000/svg"
   xmlns:svg="http://www.w3.org/2000/svg">
  <sodipodi:namedview
     id="namedview1"
     pagecolor="#ffffff"
     bordercolor="#000000"
     borderopacity="0.25"
     inkscape:showpageshadow="2"
     inkscape:pageopacity="0.0"
     inkscape:pagecheckerboard="true"
     inkscape:deskcolor="#d1d1d1"
     inkscape:document-units="px"
     inkscape:zoom="4.6055556"
     inkscape:cx="90"
     inkscape:cy="90"
     inkscape:window-width="1920"
     inkscape:window-height="1009"
     inkscape:window-x="-8"
     inkscape:window-y="-8"
     inkscape:window-maximized="1"
     inkscape:current-layer="layer1" />
  <defs
     id="defs1">
    <inkscape:path-effect
       effect="bspline"
       id="path-effect1"
       is_visible="true"
       lpeversion="1.3"
       weight="33.333333"
       steps="2"
       helper_size="0"
       apply_no_weight="true"
       apply_with_weight="true"
       only_selected="false"
       uniform="false" />
  </defs>
  <g
     inkscape:label="Layer 1"
     inkscape:groupmode="layer"
     id="layer1">
    <path
       style="fill:#000000;stroke:#ffffff;stroke-width:3"
       d="m 60.072376,52.183353 c -0.361881,2.605549 5.500603,11.363088 14.149692,16.68277 8.64909,5.319681 20.084325,7.201428 26.779162,4.921509 6.69483,-2.27992 8.64895,-8.721287 7.96134,-14.185748 -0.68761,-5.464461 -4.01685,-9.951703 -8.79375,-12.52107 -4.776906,-2.569368 -11.001148,-3.220742 -15.560888,-0.904645 -4.559739,2.316096 -7.454736,7.599464 -11.544052,12.267779 -4.089317,4.668316 -9.372686,8.721311 -14.43908,13.100128 -5.066393,4.378817 -9.915512,9.083186 -9.083118,14.583852 0.832394,5.500665 7.346136,11.797282 12.774406,15.452292 5.428269,3.65502 9.770764,4.66827 14.36671,3.76354 4.595946,-0.90473 9.445065,-3.72735 12.66583,-7.056705 3.220764,-3.329351 4.813012,-7.165221 6.803386,-6.911861 1.990374,0.253361 4.378746,4.595855 3.872076,8.431835 -0.506667,3.835981 -3.90829,7.165231 -8.069978,9.445091 -4.161689,2.27987 -9.083182,3.51024 -14.728603,5.21111 -5.645421,1.70086 -12.014411,3.87211 -16.067505,2.31597 -4.053093,-1.55615 -5.790089,-6.83951 -4.632029,-10.53073 1.158061,-3.69121 5.211059,-5.79009 9.553686,-7.599511 4.342627,-1.809424 8.974621,-3.329297 16.103789,-4.595893 7.129167,-1.266596 16.75503,-2.279845 22.18327,-4.559736 5.42824,-2.279891 6.65861,-5.82626 6.62241,-9.047038 -0.0362,-3.220777 -1.33895,-6.115774 -3.76359,-8.902292 -2.42465,-2.786517 -5.97102,-5.464388 -10.205084,-6.079572 -4.234065,-0.615183 -9.155559,0.832315 -14.149578,3.618846 -4.994019,2.786531 -10.060263,6.911901 -14.656203,10.349805 -4.59594,3.437905 -8.721309,6.188151 -12.376347,9.626069 -3.655038,3.437919 -6.839534,7.563289 -7.056635,12.159242 -0.2171,4.59595 2.533146,9.66219 8.866175,13.06389 6.33303,3.40171 16.248394,5.13871 24.137475,6.00722 7.889081,0.86852 13.751448,0.86852 24.137607,-1.08568 10.38615,-1.9542 25.29539,-5.86245 33.83582,-13.20875 8.54043,-7.346312 10.71168,-18.130174 10.2412,-25.693547 -0.47048,-7.563373 -3.5826,-11.905867 -8.79377,-17.94937 -5.21117,-6.043502 -12.52104,-13.787619 -18.38357,-18.78161 -5.86253,-4.993992 -10.27739,-7.237611 -16.6466,-9.300356 -6.3692,-2.062746 -14.692315,-3.944494 -24.535613,-4.849198 -9.843298,-0.904703 -21.206159,-0.832328 -29.710437,1.664705 -8.504279,2.497034 -14.149522,7.418528 -16.103666,14.258182 -1.954144,6.839653 -0.217146,15.597017 5.790194,20.446242 6.00734,4.849225 16.284578,5.790099 24.065089,7.310024 7.780511,1.519924 13.063879,3.618796 17.261739,6.224376 4.19786,2.60558 7.309982,5.717702 5.898583,9.662261 -1.411398,3.944559 -7.346141,8.721303 -12.665851,10.928778 -5.319709,2.207473 -10.024078,1.845603 -14.475266,1.158013 -4.451188,-0.68758 -8.648932,-1.700831 -10.820224,-0.72372 -2.171293,0.97711 -2.316042,3.94448 -1.085618,5.97103 1.230425,2.02655 3.83592,3.11217 8.395696,3.72737 4.559776,0.61521 11.073518,0.75996 18.202666,-0.97711 7.129148,-1.73707 14.873264,-5.35582 21.133866,-9.083241 6.260602,-3.72742 11.037352,-7.563292 15.741862,-13.100153 4.70451,-5.536861 9.3365,-12.774355 13.49818,-20.482518 4.16168,-7.708163 7.8528,-15.886528 13.38966,-16.429282 5.53686,-0.542754 12.91911,6.549992 15.27131,16.139979 2.3522,9.589987 -0.32567,21.676597 -5.6816,32.496957 -5.35593,10.820358 -13.38954,20.373848 -23.59473,26.525868 -10.20519,6.15201 -22.5813,8.90226 -36.875794,8.32321 -14.294494,-0.57905 -30.506472,-4.4873 -39.300214,-8.03377 -8.793742,-3.54647 -10.168864,-6.73096 -9.300317,-10.85646 0.868547,-4.12551 3.980666,-9.19175 16.863884,-7.67177 12.883217,1.51999 35.536564,9.62598 25.91009,20.44638 -9.626474,10.8204 -51.531545,24.3545 -67.56281,27.86469 -16.03126502,3.51019 -6.1882773,-3.00355 7.744352,-6.8757 13.932629,-3.87214 31.953981,-5.10252 45.16275,-6.80339 13.208768,-1.70086 21.604259,-3.87211 25.295443,-7.20147 3.691184,-3.32935 2.677934,-7.8166 2.569378,-14.36674 -0.108556,-6.55015 0.687568,-15.16276 -7.961588,-17.58733 -8.649155,-2.424575 -26.742882,1.33892 -26.706512,3.76354 0.03637,2.42462 18.202472,3.51024 22.183071,9.04713 3.980599,5.53689 -6.224265,15.52463 -5.500386,13.13607 0.723878,-2.38857 12.376242,-17.15306 21.568103,-22.726 9.19187,-5.57294 15.92273,-1.9542 12.48472,-2.78658 -3.43801,-0.83238 -17.044496,-6.115747 -26.27253,-3.835793 -9.228034,2.279953 -14.077154,12.122943 -28.009833,17.297853 -13.932678,5.17492 -36.947899,5.68154 -40.132292,6.83958 -3.184393,1.15804 13.461836,2.96741 21.640361,-0.50674 8.178526,-3.47415 7.889026,-12.23152 11.761242,-10.7115 3.872215,1.52003 11.905831,13.31714 17.225519,16.24832 5.319688,2.93118 7.925184,-3.00356 4.089135,-3.40158 -3.836049,-0.39802 -14.113287,4.7406 -22.436631,3.43775 -8.323343,-1.30285 -14.692338,-9.04697 -18.962564,-16.75513 -4.270225,-7.70815 -6.441474,-15.379894 -0.506473,-16.646428 5.935002,-1.266535 19.975733,3.872085 26.019141,9.445118 6.043407,5.57304 4.089284,11.58016 10.205227,13.78762 6.115944,2.20747 20.301426,0.61522 22.255485,-6.40541 C 91.555886,104.58359 81.278648,92.135104 69.843058,87.032592 58.407468,81.930081 45.814234,84.173703 37.490913,81.531891 29.167591,78.890079 25.114596,71.363088 25.585092,59.963659 26.055589,48.56423 31.049457,33.293124 40.169011,28.299208 c 9.119553,-4.993915 22.364161,0.289453 32.714055,6.658647 10.349894,6.369194 17.804509,13.823809 17.442546,17.62357 -0.361964,3.79976 -8.540329,3.94451 -15.922783,2.24363 -7.382454,-1.70088 -13.968571,-5.24725 -14.330453,-2.641702 z"
       id="path1"
       inkscape:path-effect="#path-effect1"
       inkscape:original-d="m 53.84801,46.031363 c 5.862485,8.757539 11.724969,17.515078 17.587454,26.272618 11.435694,1.881823 22.870929,3.76357 34.306396,5.645356 1.9542,-6.441625 3.90832,-12.882992 5.86248,-19.324488 -3.32938,-4.487424 -6.65862,-8.974668 -9.98793,-13.462002 -6.224496,-0.6514 -12.448738,-1.302775 -18.673105,-1.954162 -2.895112,5.28358 -5.790108,10.566948 -8.685163,15.850422 -5.283579,4.053157 -10.566948,8.106152 -15.850422,12.159228 -4.849313,4.704558 -9.698432,9.408927 -14.547648,14.11339 6.514003,6.296869 13.027745,12.593486 19.541617,18.890225 4.342668,1.01329 8.685163,2.02654 13.027744,3.03981 4.849313,-2.82273 9.698432,-5.64535 14.547648,-8.468033 1.592312,-3.836023 3.18456,-7.671893 4.776839,-11.50784 2.388468,4.342668 4.77684,8.685162 7.16526,13.027743 -3.401757,3.32938 -6.803378,6.65863 -10.205067,9.98794 -4.92169,1.23042 -9.843184,2.46079 -14.764776,3.69119 -6.369247,2.17134 -12.738239,4.34258 -19.107359,6.51387 -1.737067,-5.28358 -3.474065,-10.56694 -5.211097,-15.85042 4.053157,-2.09895 8.106152,-4.19783 12.159228,-6.296741 4.632179,-1.519934 9.264173,-3.039807 13.89626,-4.55971 9.626248,-1.01329 19.252111,-2.026538 28.878171,-3.039807 1.23042,-3.546513 2.46079,-7.092883 3.69119,-10.639325 -1.3028,-2.895112 -2.60555,-5.790108 -3.90832,-8.685163 -3.54652,-2.677978 -7.09289,-5.35585 -10.639328,-8.033775 -4.921691,1.447556 -9.843185,2.895054 -14.764777,4.342581 -5.066446,4.125535 -10.13269,8.250905 -15.199035,12.376357 -4.125535,2.750357 -8.250904,5.500603 -12.376357,8.250905 -3.184623,4.125535 -6.369119,8.250905 -9.553679,12.376358 2.750357,5.06645 5.500603,10.13269 8.250905,15.19903 9.915759,1.73707 19.831122,3.47407 29.746682,5.2111 5.862603,0 11.72497,0 17.587459,0 14.90982,-3.9084 29.81906,-7.81664 44.72858,-11.72497 2.17134,-10.784291 4.34259,-21.568153 6.51388,-32.35223 -3.11225,-4.342668 -6.22437,-8.685163 -9.33655,-13.027744 -7.31016,-7.744425 -14.62003,-15.48854 -21.93004,-23.232811 -4.41505,-2.243712 -8.82991,-4.487334 -13.24487,-6.731001 -8.32345,-1.881823 -16.646565,-3.76357 -24.969846,-5.645356 -11.363315,0.07238 -22.726176,0.144753 -34.089264,0.217129 -5.645469,4.921691 -11.290712,9.843185 -16.936067,14.764777 1.737067,8.757715 3.474065,17.515079 5.211097,26.272618 10.277648,0.940911 20.554886,1.881785 30.832328,2.822678 5.28358,2.098956 10.566948,4.197828 15.850423,6.296743 3.112245,3.112245 6.224366,6.224367 9.33655,9.33655 -5.93498,4.776935 -11.869723,9.553679 -17.804584,14.330517 -4.704558,-0.36189 -9.408927,-0.72376 -14.11339,-1.08564 -4.197913,-1.01329 -8.395657,-2.026542 -12.593486,-3.039811 -0.144756,2.967491 -0.289505,5.934861 -0.434258,8.902291 2.605601,1.08567 5.211098,2.17129 7.816646,3.25694 6.514003,0.14475 13.027745,0.2895 19.541617,0.43426 7.744425,-3.61889 15.48854,-7.23764 23.23281,-10.85646 4.776934,-3.836022 9.553684,-7.671892 14.330524,-11.507839 4.63217,-7.23778 9.26417,-14.475271 13.89626,-21.712907 3.69126,-8.178692 7.38238,-16.357057 11.07358,-24.535585 7.38253,7.093025 14.76478,14.185766 22.14716,21.278649 -2.67798,12.087093 -5.35585,24.173703 -8.03377,36.260555 -8.03394,9.553867 -16.06755,19.107357 -24.10133,28.661037 -12.3766,2.75036 -24.75271,5.5006 -37.12907,8.2509 -16.212628,-3.9084 -32.424608,-7.81664 -48.636912,-11.72497 -1.375178,-3.18462 -2.750302,-6.36911 -4.125452,-9.55367 3.112245,-5.06645 6.224366,-10.13269 9.33655,-15.19904 22.654252,8.10631 45.307599,16.2123 67.961394,24.31846 -41.906744,13.53465 -83.811817,27.06875 -125.7177273,40.60313 9.84338145,-6.514 19.6863691,-13.02774 29.5295533,-19.54161 18.022074,-1.23043 36.043426,-2.4608 54.065139,-3.6912 8.395825,-2.17133 16.791315,-4.34258 25.186972,-6.51387 -1.013289,-4.48742 -2.026538,-8.97467 -3.039807,-13.462 0.796156,-8.61296 1.59228,-17.22557 2.38842,-25.838361 -18.094451,3.763645 -36.188178,7.527141 -54.282268,11.290711 18.166829,1.08567 36.332932,2.17129 54.499397,3.25694 -10.20527,9.98813 -20.410132,19.97587 -30.615199,29.96381 11.652827,-14.76507 23.305187,-29.52956 34.95778,-44.294332 6.73114,3.618892 13.462,7.237632 20.193,10.856452 -13.60702,-5.28358 -27.213506,-10.566947 -40.820261,-15.850421 -4.849313,9.843381 -9.698432,19.686371 -14.547648,29.529551 -23.016142,0.50665 -46.031363,1.01327 -69.0470445,1.51991 16.6468955,1.80944 33.2931245,3.61881 49.9396865,5.42822 -0.289511,-8.75771 -0.579011,-17.51508 -0.868516,-26.27261 8.033936,11.79758 16.067551,23.59469 24.101326,35.39203 2.605601,-5.93498 5.211098,-11.86972 7.816647,-17.80458 -10.277648,5.13882 -20.554885,10.27744 -30.832328,15.41616 -6.369247,-7.74442 -12.738239,-15.48854 -19.107358,-23.23281 -2.171334,-7.67204 -4.342582,-15.343784 -6.513872,-23.015678 14.041294,5.138824 28.082026,10.277443 42.123039,15.416168 -1.9542,6.00735 -3.908323,12.01447 -5.862485,18.02171 14.18605,-1.59231 28.371532,-3.18456 42.557294,-4.77684 C 91.555886,104.58359 81.278649,92.135103 71.001206,79.686369 58.407468,81.930081 45.814234,84.173703 33.220748,86.41737 29.167591,78.890079 25.114596,71.363088 21.06152,63.835947 26.055588,48.56423 31.049457,33.293124 36.043426,18.021713 c 13.245138,5.28358 26.489746,10.566948 39.73462,15.850422 7.454914,7.454914 14.909529,14.90953 22.364294,22.364294 -8.178692,0.144756 -16.357057,0.289506 -24.535585,0.434259 C 67.020375,53.124175 60.434258,49.577805 53.84801,46.031363 Z" />
  </g>
</svg>
