<?xml version="1.0" encoding="UTF-8" standalone="no"?>
<!-- Created with Inkscape (http://www.inkscape.org/) -->

<svg
   width="180"
   height="180"
   viewBox="0 0 180 180"
   version="1.1"
   id="svg1"
   inkscape:version="1.4.3 (0d15f75, 2025-12-25)"
   sodipodi:docname="bK.svg"
   xmlns:inkscape="http://www.inkscape.org/namespaces/inkscape"
   xmlns:sodipodi="http://sodipodi.sourceforge.net/DTD/sodipodi-0.dtd"
   xmlns="http://www.w3.org/2000/svg"
   xmlns:svg="http://www.w3.org/2000/svg">
  <sodipodi:namedview
     id="namedview1"
     pagecolor="#ffffff"
     bordercolor="#000000"
     borderopacity="0.25"
     inkscape:showpageshadow="2"
     inkscape:pageopacity="0.0"
     inkscape:pagecheckerboard="true"
     inkscape:deskcolor="#d1d1d1"
     inkscape:document-units="px"
     inkscape:zoom="4.6055556"
     inkscape:cx="89.891435"
     inkscape:cy="90"
     inkscape:window-width="1920"
     inkscape:window-height="1009"
     inkscape:window-x="-8"
     inkscape:window-y="-8"
     inkscape:window-maximized="1"
     inkscape:current-layer="layer1" />
  <defs
     id="defs1">
    <inkscape:path-effect
       effect="bspline"
       id="path-effect4"
       is_visible="true"
       lpeversion="1.3"
       weight="33.333333"
       steps="2"
       helper_size="0"
       apply_no_weight="true"
       apply_with_weight="true"
       only_selected="false"
       uniform="false" />
  </defs>
  <g
     inkscape:label="Layer 1"
     inkscape:groupmode="layer"
     id="layer1">
    <path
       d="M 77.298828,14.546875 V 26.923828 H 59.058594 V 41.90625 H 77.298828 V 56.783203 A 25.946924,33.00362 0 0 0 60.037109,48.419922 25.946924,33.00362 0 0 0 34.089844,81.423828 25.946924,33.00362 0 0 0 59.275391,114.41211 v 35.40625 h 52.980469 v -33.66992 a 25.946924,33.00362 0 0 0 25.5293,-33.000003 25.946924,33.00362 0 0 0 -25.94727,-33.003906 25.946924,33.00362 0 0 0 -18.039062,9.28125 V 41.90625 H 110.30078 V 26.923828 H 93.798828 V 14.546875 Z m 8.673828,65.972656 a 25.946924,33.00362 0 0 1 0.0098,0.904297 25.946924,33.00362 0 0 1 -0.01367,1.085938 25.946924,33.00362 0 0 1 -0.02148,0.65039 25.946924,33.00362 0 0 1 -0.04687,0.892578 25.946924,33.00362 0 0 1 -0.0098,-0.892578 25.946924,33.00362 0 0 1 0,-0.01172 25.946924,33.00362 0 0 1 0.0059,-0.638671 25.946924,33.00362 0 0 1 0.07617,-1.990235 z"
       style="fill:#000000;stroke:#ffffff;stroke-width:3"
       id="path3" />
    <path
       style="fill:none;stroke:#ffffff;stroke-width:3;stroke-linecap:butt;stroke-linejoin:miter;stroke-opacity:1;stroke-dasharray:none"
       d="M 59.493366,114.20989 85.983112,82.291918 112.0386,116.38118"
       id="path4" />
  </g>
</svg>
