<?xml version="1.0" encoding="UTF-8" standalone="no"?>
<!-- Created with Inkscape (http://www.inkscape.org/) -->

<svg
   width="180"
   height="180"
   viewBox="0 0 180 180"
   version="1.1"
   id="svg1"
   sodipodi:docname="bFERS.svg"
   inkscape:version="1.4.3 (0d15f75, 2025-12-25)"
   xmlns:inkscape="http://www.inkscape.org/namespaces/inkscape"
   xmlns:sodipodi="http://sodipodi.sourceforge.net/DTD/sodipodi-0.dtd"
   xmlns="http://www.w3.org/2000/svg"
   xmlns:svg="http://www.w3.org/2000/svg">
  <sodipodi:namedview
     id="namedview1"
     pagecolor="#ffffff"
     bordercolor="#000000"
     borderopacity="0.25"
     inkscape:showpageshadow="2"
     inkscape:pageopacity="0.0"
     inkscape:pagecheckerboard="true"
     inkscape:deskcolor="#d1d1d1"
     inkscape:document-units="px"
     inkscape:zoom="3.04"
     inkscape:cx="89.967105"
     inkscape:cy="89.967105"
     inkscape:window-width="1127"
     inkscape:window-height="993"
     inkscape:window-x="-7"
     inkscape:window-y="0"
     inkscape:window-maximized="0"
     inkscape:current-layer="layer1" />
  <defs
     id="defs1">
    <inkscape:path-effect
       effect="bspline"
       id="path-effect3"
       is_visible="true"
       lpeversion="1.3"
       weight="33.333333"
       steps="2"
       helper_size="0"
       apply_no_weight="true"
       apply_with_weight="true"
       only_selected="false"
       uniform="false" />
    <inkscape:path-effect
       effect="bspline"
       id="path-effect2"
       is_visible="true"
       lpeversion="1.3"
       weight="33.333333"
       steps="2"
       helper_size="0"
       apply_no_weight="true"
       apply_with_weight="true"
       only_selected="false"
       uniform="false" />
    <inkscape:path-effect
       effect="bspline"
       id="path-effect1"
       is_visible="true"
       lpeversion="1.3"
       weight="33.333333"
       steps="2"
       helper_size="0"
       apply_no_weight="true"
       apply_with_weight="true"
       only_selected="false"
       uniform="false" />
  </defs>
  <g
     inkscape:label="Layer 1"
     inkscape:groupmode="layer"
     id="layer1">
    <path
       style="fill:#000000;stroke:#ffffff;stroke-width:3"
       d="m 24.671053,82.730263 c 4.714912,6.743421 9.42973,10.69071 16.666717,13.212691 7.236987,2.521982 16.995367,3.618431 29.111838,3.728082 12.116471,0.109652 26.58956,-0.767507 37.719172,-2.467105 11.12962,-1.699597 18.9144,-4.221426 25.60313,-8.114046 6.68872,-3.892619 12.28061,-9.155572 16.44736,-13.870578 4.16675,-4.715006 6.90792,-8.881587 8.22371,-13.761029 1.31579,-4.879442 1.20614,-10.471436 -0.49345,-16.831157 -1.6996,-6.35972 -4.98901,-13.486767 -11.78735,-19.681996 C 139.36383,18.749896 129.05702,13.486843 119.51745,10.307007 109.97789,7.1271704 101.20614,6.0307017 90.350748,5.8662357 79.495355,5.7017698 66.557018,6.4692982 55.372713,8.3881885 44.188408,10.307079 34.758772,13.377193 28.563567,17.324609 c -6.195205,3.947417 -9.155672,8.771882 -10.910064,13.596492 -1.754391,4.82461 -2.302626,9.649074 -3.289482,13.980253 -0.986856,4.331179 -2.412266,8.168821 -0.767482,14.857513 1.644784,6.688692 6.359602,16.227975 11.074514,22.971396 z"
       id="path1"
       inkscape:path-effect="#path-effect2"
       inkscape:original-d="m 24.671053,85.526315 c 4.714912,3.947369 9.42973,7.894658 14.144737,11.842106 9.758967,1.096513 19.517347,2.192961 29.276315,3.289479 14.473974,-0.877216 28.947063,-1.754373 43.421045,-2.631584 7.78525,-2.521983 15.57003,-5.04381 23.35527,-7.56579 5.59221,-5.263262 11.1841,-10.526211 16.77631,-15.789473 2.74129,-4.16675 5.48246,-8.333333 8.22369,-12.5 -0.10965,-5.592217 -0.2193,-11.184211 -0.32895,-16.776316 -3.28954,-7.127336 -6.57894,-14.254386 -9.86842,-21.381579 C 139.36383,18.749895 129.05702,13.486842 118.75,8.2236842 109.97789,7.1271711 101.20614,6.0307018 92.434211,4.9342105 79.495355,5.7017697 66.557018,6.4692982 53.618421,7.2368421 44.188408,10.307079 34.758772,13.377193 25.328947,16.447368 c -2.960585,4.824658 -5.921052,9.649123 -8.881579,14.473685 -0.548256,4.824658 -1.096491,9.649122 -1.644736,14.473684 -1.425468,3.837796 -2.850878,7.675438 -4.276316,11.513158 4.715007,9.539664 9.429824,19.078947 14.144737,28.61842 z"
       sodipodi:nodetypes="ccccccccccccccccc"
       transform="matrix(1.047939,0,0,1.095864,-0.50900061,10.336726)" />
    <path
       style="fill:#000000;stroke:#ffffff;stroke-width:3"
       d="m 18.75,68.092105 c 3.72807,-2.960526 7.45614,-5.921052 11.896981,-7.785095 4.440841,-1.864043 9.594247,-2.631571 14.418854,-3.782902 4.824606,-1.151331 9.32013,-2.686388 15.95399,-7.0176 6.633859,-4.331212 15.405613,-11.458262 24.177543,-18.585455 11.513157,7.785088 23.026322,15.57018 33.607552,19.901327 10.58124,4.331147 20.23017,5.208322 26.20607,7.785121 5.9759,2.576799 8.27848,6.853019 10.58112,11.129341"
       id="path2"
       inkscape:path-effect="#path-effect3"
       inkscape:original-d="m 18.75,68.092105 c 3.72807,-2.960526 7.45614,-5.921052 11.184211,-8.881579 5.153611,-0.767559 10.307017,-1.535087 15.460526,-2.302631 4.495704,-1.535119 8.991228,-3.070176 13.486842,-4.605263 8.772105,-7.127336 26.315789,-21.381579 26.315789,-21.381579 0,0 23.026322,15.570178 34.539472,23.355263 9.64932,0.87721 19.29825,1.754386 28.94737,2.631579 2.30268,4.276406 4.60526,8.552627 6.9079,12.828947"
       sodipodi:nodetypes="cccccccc"
       transform="matrix(1.047939,0,0,1.095864,-0.50900061,10.336726)" />
  </g>
</svg>
