<?xml version="1.0" encoding="UTF-8" standalone="no"?>
<!-- Created with Inkscape (http://www.inkscape.org/) -->

<svg
   width="180"
   height="180"
   viewBox="0 0 180 180"
   version="1.1"
   id="svg1"
   inkscape:version="1.4.3 (0d15f75, 2025-12-25)"
   sodipodi:docname="bP.svg"
   xmlns:inkscape="http://www.inkscape.org/namespaces/inkscape"
   xmlns:sodipodi="http://sodipodi.sourceforge.net/DTD/sodipodi-0.dtd"
   xmlns="http://www.w3.org/2000/svg"
   xmlns:svg="http://www.w3.org/2000/svg">
  <sodipodi:namedview
     id="namedview1"
     pagecolor="#ffffff"
     bordercolor="#000000"
     borderopacity="0.25"
     inkscape:showpageshadow="2"
     inkscape:pageopacity="0.0"
     inkscape:pagecheckerboard="true"
     inkscape:deskcolor="#d1d1d1"
     inkscape:document-units="px"
     showguides="false"
     inkscape:zoom="2.49"
     inkscape:cx="90.160643"
     inkscape:cy="90.963855"
     inkscape:window-width="1920"
     inkscape:window-height="1009"
     inkscape:window-x="-8"
     inkscape:window-y="-8"
     inkscape:window-maximized="1"
     inkscape:current-layer="layer1" />
  <defs
     id="defs1" />
  <g
     inkscape:label="Layer 1"
     inkscape:groupmode="layer"
     id="layer1">
    <path
       d="m 90.000002,17.71094 a 21.88755,21.88755 0 0 0 -21.886719,21.888671 21.88755,21.88755 0 0 0 7.125,16.103516 37.550201,37.550201 0 0 0 -22.789062,34.498047 37.550201,37.550201 0 0 0 4.714843,18.134766 67.269073,67.269073 0 0 0 -34.273437,53.95312 H 157.10937 a 67.269073,67.269073 0 0 0 -34.27343,-53.95312 37.550201,37.550201 0 0 0 4.71484,-18.134766 37.550201,37.550201 0 0 0 -22.78906,-34.498047 21.88755,21.88755 0 0 0 7.125,-16.103516 A 21.88755,21.88755 0 0 0 90.000002,17.71094 Z"
       style="fill:#000000;stroke-width:3;stroke:#ffffff;stroke-dasharray:none"
       id="path4" />
  </g>
</svg>
