<?xml version="1.0" encoding="UTF-8" standalone="no"?>
<!-- Created with Inkscape (http://www.inkscape.org/) -->

<svg
   width="180"
   height="180"
   viewBox="0 0 180 180"
   version="1.1"
   id="svg1"
   sodipodi:docname="bREVERSEQUEEN.svg"
   inkscape:version="1.4.3 (0d15f75, 2025-12-25)"
   xmlns:inkscape="http://www.inkscape.org/namespaces/inkscape"
   xmlns:sodipodi="http://sodipodi.sourceforge.net/DTD/sodipodi-0.dtd"
   xmlns="http://www.w3.org/2000/svg"
   xmlns:svg="http://www.w3.org/2000/svg">
  <sodipodi:namedview
     id="namedview1"
     pagecolor="#ffffff"
     bordercolor="#000000"
     borderopacity="0.25"
     inkscape:showpageshadow="2"
     inkscape:pageopacity="0.0"
     inkscape:pagecheckerboard="true"
     inkscape:deskcolor="#d1d1d1"
     inkscape:document-units="px"
     inkscape:zoom="4.6055556"
     inkscape:cx="90.108564"
     inkscape:cy="63.293124"
     inkscape:window-width="1920"
     inkscape:window-height="974"
     inkscape:window-x="-11"
     inkscape:window-y="-11"
     inkscape:window-maximized="1"
     inkscape:current-layer="layer1" />
  <defs
     id="defs1">
    <inkscape:path-effect
       effect="bspline"
       id="path-effect3"
       is_visible="true"
       lpeversion="1.3"
       weight="33.333333"
       steps="2"
       helper_size="0"
       apply_no_weight="true"
       apply_with_weight="true"
       only_selected="false"
       uniform="false" />
    <inkscape:path-effect
       effect="bspline"
       id="path-effect1"
       is_visible="true"
       lpeversion="1.3"
       weight="33.333333"
       steps="2"
       helper_size="0"
       apply_no_weight="true"
       apply_with_weight="true"
       only_selected="false"
       uniform="false" />
  </defs>
  <g
     inkscape:label="Layer 1"
     inkscape:groupmode="layer"
     id="layer1">
    <path
       id="path1"
       style="fill:#000000;stroke:#ffffff;stroke-width:3;stroke-linecap:butt;stroke-linejoin:miter;stroke-dasharray:none;stroke-opacity:1"
       d="m 134.11817,146.57797 c 2.67792,-6.65862 5.35556,-13.31827 7.20117,-18.45703 1.84561,-5.13876 2.85943,-8.7572 4.08984,-12.95508 1.23042,-4.19787 2.67802,-8.97422 3.76368,-18.708983 1.08565,-9.734767 1.80933,-24.425703 0.0723,-34.558599 -1.73707,-10.13289 -5.93498,-15.70631 -10.13281,-21.27929 3.90832,-3.11219 7.81517,-6.22435 10.5293,-10.82031 2.71412,-4.59597 4.23544,-10.67506 4.81445,-14.33008 0.57901,-3.65502 0.21735,-4.88679 -0.14453,-6.1171898 -42.05067,-0.36188 -84.101093,-0.72356 -106.103513,-0.14453 -22.00243,0.57903 -23.95694,2.1000998 -24.0293,5.5742198 -0.07236,3.47412 1.73644,8.90197 4.19726,12.95508 2.46083,4.0531 5.57337,6.73028 8.68555,9.4082 -2.4608,3.40169 -4.92197,6.80454 -6.76758,11.32812 -1.84561,4.52358 -3.0762,10.16741 -3.6914,18.12891 -0.6152,7.961502 -0.6142,18.239314 -0.65039,27.720703 -0.03619,9.481389 -0.10947,18.165729 0.57812,26.597659 0.68759,8.43192 2.13451,16.61053 3.58203,24.78906 4.34259,-8.03378 8.68546,-16.06772 12.52149,-23.41406 3.77269,-7.22505 7.05575,-13.78398 10.98437,-21.02149 l 8.13477,32.21485 10.2832,-32.33594 c 0.1525,0.78916 0.30354,1.57683 0.45313,2.36133 1.6285,8.54058 3.0768,16.79196 4.56054,23.74023 1.483747,6.94827 3.003536,12.59293 4.52344,18.23828 2.460796,-6.731 4.920126,-13.46164 7.308594,-19.93945 2.388467,-6.47781 4.705329,-12.70162 7.708984,-20.01172 0.0055,-0.0134 0.01208,-0.0276 0.01758,-0.041 l 8.126957,32.18164 10.67187,-33.55664 c 0.96219,2.42777 1.9447,4.89031 2.89649,7.27734 2.27987,5.71778 4.37877,11.00079 6.98437,16.79102 2.6056,5.79022 5.71789,12.08802 8.83008,18.38476 z" />
    <circle
       style="fill:#000000;stroke:#ffffff;stroke-width:3;stroke-dasharray:none"
       id="path2"
       cx="-133.06593"
       cy="-150.48595"
       r="9.119421"
       transform="scale(-1)" />
    <circle
       style="fill:#000000;stroke:#ffffff;stroke-width:3;stroke-dasharray:none"
       id="path2-8"
       cx="-82.141327"
       cy="-148.88823"
       r="9.119421"
       transform="scale(-1)" />
    <circle
       style="fill:#000000;stroke:#ffffff;stroke-width:3;stroke-dasharray:none"
       id="path2-8-1"
       cx="-32.141331"
       cy="-144.88823"
       r="9.119421"
       transform="scale(-1)" />
    <path
       style="fill:#000000;stroke:#ffffff;stroke-width:3;stroke-linecap:butt;stroke-linejoin:miter;stroke-dasharray:none;stroke-opacity:1"
       d="M 138.46038,40.184378 37.495367,36.710318"
       id="path4" />
  </g>
</svg>
