<?xml version="1.0" encoding="UTF-8" standalone="no"?>
<!-- Created with Inkscape (http://www.inkscape.org/) -->

<svg
   width="180"
   height="180"
   viewBox="0 0 47.624999 47.625"
   version="1.1"
   id="svg1"
   inkscape:version="1.4.3 (0d15f75, 2025-12-25)"
   sodipodi:docname="wA.svg"
   xmlns:inkscape="http://www.inkscape.org/namespaces/inkscape"
   xmlns:sodipodi="http://sodipodi.sourceforge.net/DTD/sodipodi-0.dtd"
   xmlns="http://www.w3.org/2000/svg"
   xmlns:svg="http://www.w3.org/2000/svg">
  <sodipodi:namedview
     id="namedview1"
     pagecolor="#ffffff"
     bordercolor="#000000"
     borderopacity="0.25"
     inkscape:showpageshadow="2"
     inkscape:pageopacity="0.0"
     inkscape:pagecheckerboard="true"
     inkscape:deskcolor="#d1d1d1"
     inkscape:document-units="px"
     inkscape:zoom="4.17"
     inkscape:cx="97.961631"
     inkscape:cy="85.01199"
     inkscape:window-width="1920"
     inkscape:window-height="1009"
     inkscape:window-x="-8"
     inkscape:window-y="-8"
     inkscape:window-maximized="1"
     inkscape:current-layer="layer1" />
  <defs
     id="defs1">
    <inkscape:path-effect
       effect="bspline"
       id="path-effect4"
       is_visible="true"
       lpeversion="1.3"
       weight="33.333333"
       steps="2"
       helper_size="0"
       apply_no_weight="true"
       apply_with_weight="true"
       only_selected="false"
       uniform="false" />
    <inkscape:path-effect
       effect="bspline"
       id="path-effect1"
       is_visible="true"
       lpeversion="1.3"
       weight="33.333333"
       steps="2"
       helper_size="0"
       apply_no_weight="true"
       apply_with_weight="true"
       only_selected="false"
       uniform="false" />
    <inkscape:path-effect
       effect="bspline"
       id="path-effect4-4"
       is_visible="true"
       lpeversion="1.3"
       weight="33.333333"
       steps="2"
       helper_size="0"
       apply_no_weight="true"
       apply_with_weight="true"
       only_selected="false"
       uniform="false" />
  </defs>
  <g
     inkscape:label="Layer 1"
     inkscape:groupmode="layer"
     id="layer1">
    <path
       style="fill:#ffffff;stroke:#000000;stroke-width:0.72909;stroke-linecap:butt;stroke-linejoin:miter;stroke-dasharray:none;stroke-opacity:1"
       d="M 42.701338,44.604815 C 42.468691,40.03647 42.236044,35.468126 41.39004,31.216987 40.544036,26.965849 39.084733,23.032073 37.688836,20.113389 c -1.395897,-2.918684 -2.728305,-4.822123 -4.272253,-6.281465 -1.543949,-1.459342 -3.299343,-2.47451 -4.938465,-2.939803 -1.639121,-0.465294 -3.161871,-0.380697 -4.303965,-0.274947 -1.142094,0.10575 -1.90347,0.232646 -2.664861,0.359545 0,0 -1.205535,-2.3476224 -1.205535,-2.3476224 -0.274947,1.0997868 -0.549893,2.1995734 -1.469923,2.9080934 -0.92003,0.70852 -2.485048,1.025753 -4.145336,1.766009 -1.660289,0.740256 -3.415648,1.903446 -3.859802,3.235907 -0.444153,1.33246 0.422951,2.834031 1.596786,3.616588 1.173835,0.782557 2.654258,0.846003 3.965569,0.4653 1.31131,-0.380703 2.453373,-1.205527 3.320519,-1.332419 0.867145,-0.126893 1.459326,0.444139 1.829448,1.29014 0.370122,0.846001 0.518168,1.966915 0.169188,3.309939 -0.348979,1.343025 -1.194953,2.908076 -2.231302,4.166494 -1.03635,1.258419 -2.26301,2.210139 -3.394532,3.722367 -1.131521,1.512227 -2.167839,3.584862 -2.474506,5.816185 -0.306667,2.231322 0.116319,4.621195 0.539314,7.011117 1.776579,-0.06345 3.553158,-0.126899 5.594131,-0.116323 2.040974,0.01057 4.34625,0.09517 6.672746,0.116321 2.326495,0.02115 4.674072,-0.02115 7.021717,-0.0423 2.347645,-0.02115 4.695219,-0.02115 7.04284,-0.02115 z"
       id="path1"
       inkscape:path-effect="#path-effect1"
       inkscape:original-d="m 42.701338,44.604815 c 0,0 -0.465294,-9.136689 -0.697941,-13.705035 -1.459362,-3.933931 -2.918666,-7.867706 -4.377996,-11.801559 -1.332463,-1.903515 -2.664871,-3.806954 -3.997304,-5.710432 -1.755463,-1.015208 -3.510857,-2.030375 -5.266288,-3.045563 -1.522812,0.0846 -3.045562,0.169198 -4.568344,0.253797 -0.761406,0.126901 -2.284173,0.380696 -2.284173,0.380696 L 20.303757,8.6290966 c 0,0 -0.549894,2.1995734 -0.82484,3.2993604 -1.565113,0.317253 -3.130131,0.634486 -4.695244,0.951739 -1.755464,1.163259 -3.510823,2.326449 -5.2662868,3.489708 0.8671568,1.501662 1.7342608,3.003233 2.6014178,4.504896 1.480513,0.06345 2.960936,0.126897 4.441448,0.190348 1.142109,-0.824857 2.284172,-1.649681 3.426258,-2.474521 0.592205,0.571055 1.184386,1.142087 1.776579,1.71313 0.148051,1.120959 0.296097,2.241873 0.444145,3.362809 -0.846007,1.565113 -1.69198,3.130164 -2.53797,4.695243 -1.226709,0.951759 -2.45337,1.903479 -3.680055,2.855217 -1.036359,2.072716 -2.072676,4.145351 -3.109013,6.218025 0.423003,2.389971 1.268984,7.169766 1.268984,7.169766 0,0 3.553158,-0.126899 5.329737,-0.190348 2.305368,0.0846 4.610644,0.169198 6.915967,0.253796 2.347668,-0.0423 4.695245,-0.0846 7.042866,-0.1269 2.347669,0 7.042864,0 7.042864,0 z"
       sodipodi:nodetypes="ccccccccccccccccccccccccc"
       transform="matrix(0.81352215,0,0,0.81352215,1.1630677,-1.876774)" />
    <ellipse
       style="fill:#000000;stroke:#ffffff;stroke-width:0.593131;stroke-dasharray:none"
       id="path2"
       cx="13.042782"
       cy="10.871478"
       rx="0.66377527"
       ry="0.71118784" />
    <path
       style="fill:#ffffff;stroke:#000000;stroke-width:0.593131;stroke-linecap:butt;stroke-linejoin:miter;stroke-dasharray:none;stroke-opacity:1"
       d="m 11.004047,14.427419 4.741254,-2.180976"
       id="path3" />
    <path
       style="fill:#ffffff;stroke:#000000;stroke-width:0.79375;stroke-linecap:butt;stroke-linejoin:miter;stroke-dasharray:none;stroke-opacity:1"
       d="m 14.720223,34.199142 c -0.274946,1.311284 -0.549893,2.622568 -1.099794,3.532012 -0.549901,0.909443 -1.374726,1.417028 -2.284174,1.586224 -0.909449,0.169196 -1.9034477,4e-6 -3.0667075,0.444158 -1.1632598,0.444153 -2.4956666,1.501619 -3.8281006,2.559107 0,0 3.0455634,2.157275 3.0455634,2.157275 0.5710431,-0.655643 1.1420861,-1.311285 1.9457868,-1.744857 0.8037009,-0.433572 1.8400179,-0.645066 2.8129159,-1.110367 0.972897,-0.465302 1.882317,-1.184379 2.580264,-2.463957 0.697946,-1.279577 1.184381,-3.11957 1.670825,-4.959598 z"
       id="path4"
       inkscape:path-effect="#path-effect4"
       inkscape:original-d="m 14.720223,34.199142 c 0,0 -0.549893,2.622568 -0.824839,3.933851 -0.824857,0.507603 -1.649681,1.015188 -2.474521,1.522783 -0.994057,-0.169202 -1.9880557,-0.338394 -2.9821141,-0.507596 -1.3324614,1.057509 -3.997302,3.172463 -3.997302,3.172463 l 3.0455634,2.157275 c 0,0 1.1420863,-1.311285 1.7131294,-1.966928 1.0363583,-0.2115 2.0726753,-0.422995 3.1090133,-0.634492 0.909457,-0.719106 1.818878,-1.438182 2.728317,-2.157275 0.486454,-1.840063 1.459332,-5.520084 1.459332,-5.520084 z"
       sodipodi:nodetypes="ccccccccccc"
       transform="translate(4.3145483,0.5926159)" />
    <path
       style="fill:#ffffff;stroke:#000000;stroke-width:0.79375;stroke-linecap:butt;stroke-linejoin:miter;stroke-dasharray:none;stroke-opacity:1"
       d="m 14.720223,34.199142 c -0.274946,1.311284 -0.549893,2.622568 -1.099794,3.532012 -0.549901,0.909443 -1.374726,1.417028 -2.284174,1.586224 -0.909449,0.169196 -1.9034477,4e-6 -3.0667075,0.444158 -1.1632598,0.444153 -2.4956666,1.501619 -3.8281006,2.559107 0,0 3.0455634,2.157275 3.0455634,2.157275 0.5710431,-0.655643 1.1420861,-1.311285 1.9457868,-1.744857 0.8037009,-0.433572 1.8400179,-0.645066 2.8129159,-1.110367 0.972897,-0.465302 1.882317,-1.184379 2.580264,-2.463957 0.697946,-1.279577 1.184381,-3.11957 1.670825,-4.959598 z"
       id="path4-2"
       inkscape:path-effect="#path-effect4-4"
       inkscape:original-d="m 14.720223,34.199142 c 0,0 -0.549893,2.622568 -0.824839,3.933851 -0.824857,0.507603 -1.649681,1.015188 -2.474521,1.522783 -0.994057,-0.169202 -1.9880557,-0.338394 -2.9821141,-0.507596 -1.3324614,1.057509 -3.997302,3.172463 -3.997302,3.172463 l 3.0455634,2.157275 c 0,0 1.1420863,-1.311285 1.7131294,-1.966928 1.0363583,-0.2115 2.0726753,-0.422995 3.1090133,-0.634492 0.909457,-0.719106 1.818878,-1.438182 2.728317,-2.157275 0.486454,-1.840063 1.459332,-5.520084 1.459332,-5.520084 z"
       sodipodi:nodetypes="ccccccccccc"
       transform="matrix(-1,0,0,1,39.762232,0.78708951)" />
  </g>
</svg>
