<?xml version="1.0" encoding="UTF-8" standalone="no"?>
<!-- Created with Inkscape (http://www.inkscape.org/) -->

<svg
   width="180"
   height="180"
   viewBox="0 0 180 180"
   version="1.1"
   id="svg1"
   inkscape:version="1.4.3 (0d15f75, 2025-12-25)"
   sodipodi:docname="wCROCODILE.svg"
   xmlns:inkscape="http://www.inkscape.org/namespaces/inkscape"
   xmlns:sodipodi="http://sodipodi.sourceforge.net/DTD/sodipodi-0.dtd"
   xmlns="http://www.w3.org/2000/svg"
   xmlns:svg="http://www.w3.org/2000/svg">
  <sodipodi:namedview
     id="namedview1"
     pagecolor="#ffffff"
     bordercolor="#000000"
     borderopacity="0.25"
     inkscape:showpageshadow="2"
     inkscape:pageopacity="0.0"
     inkscape:pagecheckerboard="true"
     inkscape:deskcolor="#d1d1d1"
     inkscape:document-units="px"
     inkscape:zoom="4.6055556"
     inkscape:cx="89.891435"
     inkscape:cy="90.108564"
     inkscape:window-width="1920"
     inkscape:window-height="974"
     inkscape:window-x="-11"
     inkscape:window-y="-11"
     inkscape:window-maximized="1"
     inkscape:current-layer="layer1" />
  <defs
     id="defs1">
    <inkscape:path-effect
       effect="bspline"
       id="path-effect5"
       is_visible="true"
       lpeversion="1.3"
       weight="33.333333"
       steps="2"
       helper_size="0"
       apply_no_weight="true"
       apply_with_weight="true"
       only_selected="false"
       uniform="false" />
    <inkscape:path-effect
       effect="bspline"
       id="path-effect4"
       is_visible="true"
       lpeversion="1.3"
       weight="33.333333"
       steps="2"
       helper_size="0"
       apply_no_weight="true"
       apply_with_weight="true"
       only_selected="false"
       uniform="false" />
    <inkscape:path-effect
       effect="bspline"
       id="path-effect1"
       is_visible="true"
       lpeversion="1.3"
       weight="33.333333"
       steps="2"
       helper_size="0"
       apply_no_weight="true"
       apply_with_weight="true"
       only_selected="false"
       uniform="false" />
  </defs>
  <g
     inkscape:label="Layer 1"
     inkscape:groupmode="layer"
     id="layer1">
    <path
       style="fill:#ffffff;stroke:#000000;stroke-width:3"
       d="m 16.936067,73.172496 c 1.230398,-3.329312 2.460797,-6.658625 4.668307,-9.517515 2.207511,-2.858889 5.392007,-5.247261 8.938487,-6.188149 3.546481,-0.940888 7.454726,-0.434263 10.241233,0.832343 2.786506,1.266607 4.451129,3.293104 5.392024,5.826307 0.940894,2.533203 1.158019,5.572949 1.845606,5.53673 0.687587,-0.03622 1.845586,-3.148341 3.61883,-5.536777 1.773245,-2.388436 4.161617,-4.053059 6.803383,-4.957765 2.641766,-0.904706 5.536762,-1.049456 8.757546,-0.578999 3.220783,0.470457 6.767153,1.556081 8.902263,3.112193 2.13511,1.556112 2.858859,3.582609 3.256929,5.572979 0.398071,1.990369 0.470446,3.944491 0.542822,5.898653 26.417373,-8.250904 52.834183,-16.501634 67.599273,-18.709159 14.76509,-2.207524 17.87714,1.628261 20.01228,4.668131 2.13515,3.03987 3.29312,5.283447 2.64173,7.454779 -0.6514,2.171333 -3.1121,4.270165 -16.35724,7.599545 -13.24514,3.329379 -37.27312,7.888904 -51.31442,11.00115 -14.041294,3.112246 -18.094288,4.776869 -22.147364,6.441525 27.285884,1.085646 54.571234,2.17127 69.770574,3.47407 15.19933,1.3028 18.31145,2.822673 19.97611,4.776858 1.66465,1.954185 1.88178,4.342555 -0.86858,6.803375 -2.75035,2.46082 -8.46797,4.99395 -17.51514,5.97102 -9.04717,0.97708 -21.42328,0.39808 -32.82266,0.0724 -11.39938,-0.3257 -21.821366,-0.39807 -31.483698,-0.54283 -9.662333,-0.14475 -18.564447,-0.36188 -26.706861,-0.2895 -8.142414,0.0724 -15.524655,0.43426 -23.48614,0.39806 -7.961484,-0.0362 -16.501723,-0.47044 -21.67665,-1.26659 -5.174927,-0.79615 -6.9843009,-1.95415 -8.5404053,-4.16166 -1.5561043,-2.20751 -2.858852,-5.46438 -3.5464288,-9.626074 -0.6875768,-4.161693 -0.7599517,-9.227937 0.3980939,-13.244854 1.1580457,-4.016918 3.5464177,-6.984289 5.9348615,-8.61276 2.3884437,-1.628471 4.7768147,-1.91797 7.1652347,-2.207476 z"
       id="path1"
       inkscape:path-effect="#path-effect1"
       inkscape:original-d="m 16.936067,73.172496 c 0,0 2.460797,-6.658625 3.691195,-9.987937 3.184623,-2.388467 6.369119,-4.776839 9.553679,-7.165259 3.908401,0.506644 7.816646,1.013269 11.724969,1.519903 1.66469,2.026579 3.329313,4.053076 4.993969,6.079614 0.217133,3.039868 0.434258,6.079614 0.651387,9.119421 1.158045,-3.112245 2.316044,-6.224367 3.474065,-9.33655 2.388468,-1.664689 4.77684,-3.329312 7.16526,-4.993968 2.895112,-0.144756 5.790108,-0.289506 8.685162,-0.434259 3.546513,1.085668 7.092883,2.171291 10.639325,3.256936 0.723778,2.026579 1.447527,4.053076 2.17129,6.079614 0.07238,1.954201 0.217129,5.862485 0.217129,5.862485 0,0 52.834183,-16.501633 79.252113,-24.752713 3.11225,3.836028 6.2243,7.671812 9.33654,11.50784 1.15805,2.243714 2.31603,4.487289 3.47407,6.731001 -2.46084,2.098957 -4.92154,4.197787 -7.38238,6.296744 -24.02944,4.559802 -48.05742,9.119328 -72.086856,13.67913 -4.053158,1.66469 -12.159228,4.993969 -12.159228,4.993969 0,0 54.571234,2.171269 81.857664,3.256937 3.11224,1.519933 6.22436,3.039805 9.33654,4.55971 0.21714,2.388466 0.43426,4.776836 0.65139,7.165256 -5.71784,2.53323 -11.43546,5.06635 -17.15319,7.59952 -12.37661,-0.57902 -24.75272,-1.15802 -37.12908,-1.73703 -10.4224,-0.0724 -20.844386,-0.14475 -31.266581,-0.21713 -8.90247,-0.21713 -17.804584,-0.43426 -26.706876,-0.65139 -7.382536,0.36189 -14.764777,0.72377 -22.147165,1.08565 -8.540581,-0.43427 -17.08082,-0.86852 -25.62123,-1.30278 -1.809445,-1.15804 -3.6188179,-2.31604 -5.4282269,-3.47406 -1.3028004,-3.257 -2.6055488,-6.51387 -3.9083232,-9.770811 -0.072378,-5.066446 -0.1447527,-10.13269 -0.2171291,-15.199035 2.3884676,-2.96749 4.7768395,-5.934861 7.1652593,-8.902291 2.3884679,-0.289512 7.1652589,-0.868517 7.1652589,-0.868517 z"
       sodipodi:nodetypes="cccccccccccccccccccccccccccccccc" />
    <ellipse
       style="fill:#ffffff;stroke:#000000;stroke-width:3"
       id="path2"
       cx="32.460796"
       cy="67.852837"
       rx="1.4113389"
       ry="1.628468" />
    <ellipse
       style="fill:#ffffff;stroke:#000000;stroke-width:3"
       id="path3"
       cx="63.618816"
       cy="68.938477"
       rx="1.5199035"
       ry="1.628468" />
    <path
       style="fill:#ffffff;stroke:#000000;stroke-width:3"
       d="m 85.983111,92.496983 c 0,0 6.296743,-5.862484 6.296743,-5.862484 0,0 10.856456,7.382388 10.856456,7.382388 0,0 7.81664,-9.553679 7.81664,-9.553679 0,0 9.55368,8.468034 9.55368,8.468034 0,0 5.86249,-11.72497 5.86249,-11.72497 0,0 8.46803,11.942099 8.46803,11.942099 0,0 6.731,-15.633293 6.731,-15.633293 0,0 9.33655,18.021712 9.33655,18.021712 0,0 7.38239,-21.278648 7.38239,-21.278648 0,0 4.99397,24.101326 4.99397,24.101326 0,0 3.69119,-26.706875 3.69119,-26.706875 0,0 -81.640526,16.718938 -81.640526,16.718938 z"
       id="path4"
       inkscape:path-effect="#path-effect5"
       inkscape:original-d="m 85.983111,92.496983 c 0,0 6.296743,-5.862484 6.296743,-5.862484 0,0 10.856456,7.382388 10.856456,7.382388 0,0 7.81664,-9.553679 7.81664,-9.553679 0,0 9.55368,8.468034 9.55368,8.468034 0,0 5.86249,-11.72497 5.86249,-11.72497 0,0 8.46803,11.942099 8.46803,11.942099 0,0 6.731,-15.633293 6.731,-15.633293 0,0 9.33655,18.021712 9.33655,18.021712 0,0 7.38239,-21.278648 7.38239,-21.278648 0,0 4.99397,24.101326 4.99397,24.101326 0,0 3.69119,-26.706875 3.69119,-26.706875 0,0 -81.640526,16.718938 -81.640526,16.718938 z" />
  </g>
</svg>
