<?xml version="1.0" encoding="UTF-8" standalone="no"?>
<!-- Created with Inkscape (http://www.inkscape.org/) -->

<svg
   width="180"
   height="180"
   viewBox="0 0 180 180"
   version="1.1"
   id="svg1"
   inkscape:version="1.4.3 (0d15f75, 2025-12-25)"
   sodipodi:docname="wREVERSEROOK.svg"
   xmlns:inkscape="http://www.inkscape.org/namespaces/inkscape"
   xmlns:sodipodi="http://sodipodi.sourceforge.net/DTD/sodipodi-0.dtd"
   xmlns="http://www.w3.org/2000/svg"
   xmlns:svg="http://www.w3.org/2000/svg">
  <sodipodi:namedview
     id="namedview1"
     pagecolor="#ffffff"
     bordercolor="#000000"
     borderopacity="0.25"
     inkscape:showpageshadow="2"
     inkscape:pageopacity="0.0"
     inkscape:pagecheckerboard="true"
     inkscape:deskcolor="#d1d1d1"
     inkscape:document-units="px"
     showborder="true"
     inkscape:zoom="4.6055556"
     inkscape:cx="89.891435"
     inkscape:cy="89.999999"
     inkscape:window-width="1920"
     inkscape:window-height="974"
     inkscape:window-x="-11"
     inkscape:window-y="-11"
     inkscape:window-maximized="1"
     inkscape:current-layer="layer1"
     showguides="true" />
  <defs
     id="defs1">
    <inkscape:path-effect
       effect="spiro"
       id="path-effect1"
       is_visible="true"
       lpeversion="1" />
  </defs>
  <g
     inkscape:label="Layer 1"
     inkscape:groupmode="layer"
     id="layer1">
    <path
       d="m 140.66408,162.53711 v -27.44922 h -16.57812 v 27.44922 z m -42.124999,-0.2168 V 134.97852 H 89.91994 v -0.10743 h -0.148438 v 0.11329 h -7.810546 v 27.33593 z M 81.960956,134.98438 v -0.11329 h 7.810546 l 0.07422,-14.09765 0.07422,14.09765 h 8.619141 v 0.10743 H 140.69142 L 124.09963,120.32227 H 124.209 V 64.019534 l 16.15039,-14.26563 H 89.587909 l -0.03125,5.86328 -0.04297,8.3418 -0.04297,-8.3418 -0.03125,-5.86914 H 38.667983 l 17.36133,15.33594 v 54.859376 l -16.90039,14.92773 h 16.01563 v 0.11329 z m -26.816403,0 h -16.14453 l 0.1289,-0.11329 h -0.56445 v 27.44922 h 16.58008 z M 140.27541,49.539064 V 22.615234 H 38.876973 v 26.92383 z"
       style="fill:#ffffff;stroke:#000000;stroke-width:3;stroke-dasharray:none"
       id="path8" />
  </g>
</svg>
