<?xml version="1.0" encoding="UTF-8" standalone="no"?>
<!-- Created with Inkscape (http://www.inkscape.org/) -->

<svg
   width="180"
   height="180"
   viewBox="0 0 180 180"
   version="1.1"
   id="svg1"
   inkscape:version="1.4.3 (0d15f75, 2025-12-25)"
   sodipodi:docname="wSNAKE.svg"
   xmlns:inkscape="http://www.inkscape.org/namespaces/inkscape"
   xmlns:sodipodi="http://sodipodi.sourceforge.net/DTD/sodipodi-0.dtd"
   xmlns="http://www.w3.org/2000/svg"
   xmlns:svg="http://www.w3.org/2000/svg">
  <sodipodi:namedview
     id="namedview1"
     pagecolor="#ffffff"
     bordercolor="#000000"
     borderopacity="0.25"
     inkscape:showpageshadow="2"
     inkscape:pageopacity="0.0"
     inkscape:pagecheckerboard="true"
     inkscape:deskcolor="#d1d1d1"
     inkscape:document-units="px"
     inkscape:zoom="4.6055556"
     inkscape:cx="89.891435"
     inkscape:cy="55.910735"
     inkscape:window-width="1920"
     inkscape:window-height="974"
     inkscape:window-x="-11"
     inkscape:window-y="-11"
     inkscape:window-maximized="1"
     inkscape:current-layer="layer1" />
  <defs
     id="defs1">
    <inkscape:path-effect
       effect="bspline"
       id="path-effect6"
       is_visible="true"
       lpeversion="1.3"
       weight="33.333333"
       steps="2"
       helper_size="0"
       apply_no_weight="true"
       apply_with_weight="true"
       only_selected="false"
       uniform="false" />
    <inkscape:path-effect
       effect="bspline"
       id="path-effect5"
       is_visible="true"
       lpeversion="1.3"
       weight="33.333333"
       steps="2"
       helper_size="0"
       apply_no_weight="true"
       apply_with_weight="true"
       only_selected="false"
       uniform="false" />
    <inkscape:path-effect
       effect="bspline"
       id="path-effect2"
       is_visible="true"
       lpeversion="1.3"
       weight="33.333333"
       steps="2"
       helper_size="0"
       apply_no_weight="true"
       apply_with_weight="true"
       only_selected="false"
       uniform="false" />
    <inkscape:path-effect
       effect="bspline"
       id="path-effect1"
       is_visible="true"
       lpeversion="1.3"
       weight="33.333333"
       steps="2"
       helper_size="0"
       apply_no_weight="true"
       apply_with_weight="true"
       only_selected="false"
       uniform="false" />
  </defs>
  <g
     inkscape:label="Layer 1"
     inkscape:groupmode="layer"
     id="layer1">
    <path
       style="fill:#ffffff;stroke:#000000;stroke-width:3"
       d="m 152.20748,157.20145 c -2.53317,-4.48734 -5.06635,-8.97467 -7.4186,-15.74195 -2.35225,-6.76728 -4.5235,-15.81415 -4.88537,-25.25936 -0.36186,-9.44521 1.08563,-19.288199 0.94086,-26.453503 -0.14477,-7.165305 -1.88177,-11.652549 -6.6225,-19.541683 -4.74072,-7.889135 -12.48484,-19.179623 -20.69964,-26.236346 -8.21481,-7.056724 -16.899794,-9.879344 -26.7069,-10.132638 -9.807105,-0.253294 -20.735717,2.062703 -28.624788,6.550103 -7.889071,4.487401 -12.73819,11.145893 -14.475209,19.794974 -1.737019,8.649081 -0.361896,19.288192 2.352258,26.634433 2.714154,7.346241 6.76715,11.399235 12.231633,15.70567 5.464483,4.30644 12.3401,8.86606 18.817844,11.61637 6.477745,2.75031 12.557238,3.69119 16.899846,5.31968 4.342607,1.62849 6.948106,3.94449 8.395636,5.35583 1.44753,1.41135 1.73703,1.91797 3.51028,3.79979 1.77325,1.88182 5.03013,5.13869 5.6453,8.28709 0.61518,3.1484 -1.41132,6.18815 -3.32931,9.55369 -1.91799,3.36553 -3.72736,7.05665 -5.53677,10.74785 z"
       id="path1"
       inkscape:path-effect="#path-effect1"
       inkscape:original-d="m 152.20748,157.20145 c 0,0 -5.06635,-8.97467 -7.59952,-13.46201 -2.17133,-9.04722 -4.34258,-18.09409 -6.51387,-27.14113 1.44755,-9.84338 2.89505,-19.686369 4.34258,-29.529553 -1.73707,-4.487424 -3.47407,-8.974668 -5.2111,-13.462003 -7.74442,-11.290937 -15.48854,-22.581423 -23.23281,-33.872134 -8.68534,-2.822735 -17.370324,-5.645356 -26.055487,-8.468034 -10.929048,2.31609 -21.85766,4.632087 -32.786489,6.94813 -4.849313,6.658758 -9.698432,13.31725 -14.547648,19.975875 1.375178,10.639537 2.750301,21.278648 4.125452,31.917973 4.053157,4.053157 8.106152,8.106152 12.159228,12.159226 6.875891,4.5598 13.751508,9.11942 20.627262,13.67913 6.079735,0.94091 12.159228,1.88179 18.238841,2.82268 2.605601,2.31609 5.211101,4.63209 7.816651,6.94813 0.28951,0.50665 0.57901,1.01327 0.86851,1.5199 3.257,3.25701 6.51387,6.51388 9.77081,9.77081 -2.02658,3.03987 -4.05308,6.07962 -6.07961,9.11942 -1.80945,3.69127 -5.42823,11.07359 -5.42823,11.07359 z" />
    <path
       style="fill:#ffffff;stroke:#000000;stroke-width:3"
       d="m 45.597105,52.762364 c -3.256936,-1.158022 -6.513873,-2.316044 -12.304065,-2.06271 -5.790191,0.253334 -14.113306,1.917957 -18.094002,4.993997 -3.980696,3.07604 -3.618821,7.563284 -3.908336,13.425842 -0.289515,5.862557 -1.230388,13.100048 1.7733,19.541599 3.003689,6.441552 9.951682,12.086798 16.755126,17.623638 6.803444,5.53685 13.461936,10.96497 21.097728,15.63328 7.635792,4.66831 16.248404,8.57656 20.301474,13.60678 4.05307,5.03022 3.546446,11.18208 3.039812,17.33407 0,0 28.443908,3.47407 28.443908,3.47407 2.96743,-5.79011 5.93486,-11.58022 6.07959,-16.75518 0.14472,-5.17495 -2.53315,-9.73457 -6.11582,-13.20866 C 99.083146,122.895 94.595898,120.50663 87.10484,116.85158 79.613781,113.19652 69.11942,108.27503 61.773178,103.67909 54.426935,99.083147 50.229191,94.813027 47.623632,90.036135 45.018074,85.259242 44.004825,79.975874 43.932457,73.679058 43.86009,67.382242 44.728589,60.072376 45.597105,52.762364 Z"
       id="path2"
       inkscape:path-effect="#path-effect2"
       inkscape:original-d="m 45.597105,52.762364 c 0,0 -6.513873,-2.316044 -9.770809,-3.474065 -8.323447,1.664689 -16.646562,3.329312 -24.969843,4.993968 0.361889,4.487424 0.723764,8.974668 1.085646,13.462003 -0.940912,7.23778 -1.881785,14.475271 -2.8226781,21.712906 6.9482691,5.645469 13.8962601,11.290714 20.8443911,16.936064 6.658757,5.42834 13.317249,10.85646 19.975874,16.28468 8.612959,3.90841 17.225573,7.81665 25.838359,11.72497 -0.506645,6.15212 -1.519903,18.45597 -1.519903,18.45597 0,0 28.443908,3.47407 28.443908,3.47407 0,0 5.93486,-11.58022 8.90229,-17.37033 -2.67798,-4.5598 -5.35585,-9.11942 -8.03377,-13.67913 -4.487428,-2.38846 -8.974672,-4.77684 -13.462006,-7.16526 C 79.613782,113.19652 69.11942,108.27503 58.624849,103.35344 54.426936,99.083146 50.229191,94.813027 46.031363,90.542822 45.018073,85.259242 44.004825,79.975874 42.991556,74.6924 43.860089,67.382242 45.597105,52.762364 45.597105,52.762364 Z" />
    <ellipse
       style="fill:#ffffff;stroke:#000000;stroke-width:3"
       id="path3"
       cx="61.77322"
       cy="58.299156"
       rx="1.1942099"
       ry="2.2798553" />
    <ellipse
       style="fill:#ffffff;stroke:#000000;stroke-width:3"
       id="path4"
       cx="81.314835"
       cy="56.99638"
       rx="1.4113389"
       ry="1.845597" />
    <path
       style="fill:#ffffff;stroke:#000000;stroke-width:4.5;stroke-dasharray:none"
       d="m 47.985524,85.331724 c 4.921592,-0.940893 9.843185,-1.881785 15.705738,-3.112199 5.862553,-1.230413 12.665794,-2.750286 18.057872,-2.677893 5.392079,0.07239 9.372699,1.737016 11.616371,4.813056 2.243672,3.07604 2.750296,7.563285 2.316024,8.685096 -0.434272,1.121811 -1.809395,-1.121811 -3.582638,-3.474067 -1.773242,-2.352257 -3.944489,-4.813004 -7.056713,-5.862457 -3.112224,-1.049454 -7.165219,-0.687579 -11.218335,-0.217127 -4.053117,0.470452 -8.106111,1.049451 -12.123039,2.026546 -4.016928,0.977094 -7.997547,2.352217 -11.978247,3.727368 z"
       id="path5"
       inkscape:path-effect="#path-effect5"
       inkscape:original-d="m 47.985524,85.331724 c 0,0 9.843185,-1.881785 14.764777,-2.822678 6.803514,-1.519934 13.606755,-3.039807 20.410132,-4.55971 3.98078,1.664689 7.9614,3.329312 11.942099,4.993968 0.506645,4.487424 1.013269,8.974669 1.519904,13.462003 -1.375179,-2.243712 -2.750302,-4.487334 -4.125453,-6.731001 -2.171334,-2.460846 -4.342581,-4.921593 -6.513872,-7.382389 -4.053157,0.361889 -8.106152,0.723764 -12.159228,1.085646 -4.053157,0.579022 -8.106151,1.158021 -12.159227,1.737032 -3.98078,1.375178 -11.942099,4.125452 -11.942099,4.125452 z" />
    <path
       style="fill:#ffffff;stroke:#000000;stroke-width:3;stroke-dasharray:none"
       d="m 115.29554,44.29433 c 7.16526,-2.460796 14.33051,-4.921591 19.75878,-4.776811 5.42826,0.144779 9.11938,2.895024 12.88299,5.536787 3.76361,2.641762 7.59948,5.174884 10.24123,7.961404 2.64175,2.78652 4.08925,5.826267 5.42823,9.843205 1.33897,4.016938 2.56934,9.010806 3.11216,12.955347 0.54282,3.944541 0.39807,6.839537 0.21713,9.843187 -0.18094,3.00365 -0.39806,6.115771 -0.43425,10.024141 -0.0362,3.90837 0.10857,8.61274 0.28951,13.20868 0.18094,4.59595 0.39806,9.08319 1.15803,12.52109 0.75996,3.4379 2.06271,5.82627 3.79977,11.39934 1.73705,5.57307 3.9083,14.33043 6.07959,23.08797 0,0 -26.70688,0.86852 -26.70688,0.86852 -2.89505,-9.33655 -5.79011,-18.6731 -7.23763,-23.81183 -1.44753,-5.13873 -1.44753,-6.07961 -1.44753,-9.40898 0,-3.32937 0,-9.04698 -0.21713,-16.17614 -0.21714,-7.12916 -0.65139,-15.669396 -2.09894,-23.051847 -1.44755,-7.38245 -3.9083,-13.606694 -8.21475,-20.084446 -4.30646,-6.477752 -10.45832,-13.208616 -16.61031,-19.939617 z"
       id="path6"
       inkscape:path-effect="#path-effect6"
       inkscape:original-d="m 115.29554,44.29433 c 0,0 14.33051,-4.921592 21.49577,-7.382388 3.69127,2.750356 7.38239,5.500603 11.07359,8.250904 3.83602,2.533224 7.67189,5.066345 11.50784,7.599518 1.44755,3.039868 2.89505,6.079614 4.34258,9.119421 1.23042,4.994068 2.46079,9.987937 3.69119,14.981905 -0.14475,2.895113 -0.2895,5.790109 -0.43426,8.685163 -0.21713,3.112246 -0.43425,6.224367 -0.65138,9.33655 0.14475,4.704557 0.2895,9.408927 0.43426,14.113387 0.21713,4.48743 0.43425,8.97467 0.65138,13.462 1.3028,2.38847 2.60555,4.77684 3.90833,7.16526 2.17133,8.75772 6.51387,26.27262 6.51387,26.27262 0,0 -26.70688,0.86852 -26.70688,0.86852 0,0 -5.79011,-18.6731 -8.68516,-28.00965 0,-0.94091 0,-1.88179 0,-2.82268 0,-5.71785 0,-11.43546 0,-17.1532 -0.43427,-8.54058 -0.86852,-17.080816 -1.30278,-25.621227 C 138.67305,76.935942 136.2123,70.7117 133.75151,64.487334 127.59939,57.756198 115.29554,44.29433 115.29554,44.29433 Z" />
    <path
       style="fill:#ffffff;stroke:#000000;stroke-width:4.5;stroke-dasharray:none"
       d="M 73.823883,112.25573 140.48251,100.74789"
       id="path7" />
    <path
       style="fill:#ffffff;stroke:#000000;stroke-width:2.74508;stroke-dasharray:none"
       d="m 104.23867,128.57706 40.02283,-7.13227"
       id="path7-8" />
  </g>
</svg>
