<?xml version="1.0" encoding="UTF-8" standalone="no"?>
<!-- Created with Inkscape (http://www.inkscape.org/) -->

<svg
   width="180"
   height="180"
   viewBox="0 0 180 180"
   version="1.1"
   id="svg1"
   inkscape:version="1.4.3 (0d15f75, 2025-12-25)"
   sodipodi:docname="wBABY.svg"
   xmlns:inkscape="http://www.inkscape.org/namespaces/inkscape"
   xmlns:sodipodi="http://sodipodi.sourceforge.net/DTD/sodipodi-0.dtd"
   xmlns="http://www.w3.org/2000/svg"
   xmlns:svg="http://www.w3.org/2000/svg">
  <sodipodi:namedview
     id="namedview1"
     pagecolor="#ffffff"
     bordercolor="#000000"
     borderopacity="0.25"
     inkscape:showpageshadow="2"
     inkscape:pageopacity="0.0"
     inkscape:pagecheckerboard="true"
     inkscape:deskcolor="#d1d1d1"
     inkscape:document-units="px"
     showguides="false"
     inkscape:zoom="3.5213918"
     inkscape:cx="90.447193"
     inkscape:cy="91.01515"
     inkscape:window-width="1920"
     inkscape:window-height="1009"
     inkscape:window-x="-8"
     inkscape:window-y="-8"
     inkscape:window-maximized="1"
     inkscape:current-layer="layer1" />
  <defs
     id="defs1" />
  <g
     inkscape:label="Layer 1"
     inkscape:groupmode="layer"
     id="layer1">
    <path
       d="M 69.239204,61.842421 A 15.275129,15.275129 0 0 0 53.964655,77.118333 15.275129,15.275129 0 0 0 58.93713,88.356835 26.205956,26.205956 0 0 0 43.032844,112.43272 26.205956,26.205956 0 0 0 46.323291,125.08881 46.946496,46.946496 0 0 0 22.40416,162.74222 h 93.67008 A 46.946496,46.946496 0 0 0 92.155117,125.08881 26.205956,26.205956 0 0 0 95.445563,112.43272 26.205956,26.205956 0 0 0 79.541278,88.356835 15.275129,15.275129 0 0 0 84.513753,77.118333 15.275129,15.275129 0 0 0 69.239204,61.842421 Z"
       style="fill:#ffffff;stroke:#000000;stroke-width:2.09367;stroke-dasharray:none"
       id="path4" />
  </g>
</svg>
