<?xml version="1.0" encoding="UTF-8" standalone="no"?>
<!-- Created with Inkscape (http://www.inkscape.org/) -->

<svg
   width="180"
   height="180"
   viewBox="0 0 180 180"
   version="1.1"
   id="svg1"
   sodipodi:docname="wG.svg"
   inkscape:version="1.4.3 (0d15f75, 2025-12-25)"
   xmlns:inkscape="http://www.inkscape.org/namespaces/inkscape"
   xmlns:sodipodi="http://sodipodi.sourceforge.net/DTD/sodipodi-0.dtd"
   xmlns="http://www.w3.org/2000/svg"
   xmlns:svg="http://www.w3.org/2000/svg">
  <sodipodi:namedview
     id="namedview1"
     pagecolor="#ffffff"
     bordercolor="#000000"
     borderopacity="0.25"
     inkscape:showpageshadow="2"
     inkscape:pageopacity="0.0"
     inkscape:pagecheckerboard="true"
     inkscape:deskcolor="#d1d1d1"
     inkscape:document-units="px"
     inkscape:zoom="4.6055556"
     inkscape:cx="90.325693"
     inkscape:cy="80.663449"
     inkscape:window-width="1920"
     inkscape:window-height="1009"
     inkscape:window-x="-8"
     inkscape:window-y="-8"
     inkscape:window-maximized="1"
     inkscape:current-layer="layer1" />
  <defs
     id="defs1">
    <inkscape:path-effect
       effect="bspline"
       id="path-effect3"
       is_visible="true"
       lpeversion="1.3"
       weight="33.333333"
       steps="2"
       helper_size="0"
       apply_no_weight="true"
       apply_with_weight="true"
       only_selected="false"
       uniform="false" />
    <inkscape:path-effect
       effect="bspline"
       id="path-effect1"
       is_visible="true"
       lpeversion="1.3"
       weight="33.333333"
       steps="2"
       helper_size="0"
       apply_no_weight="true"
       apply_with_weight="true"
       only_selected="false"
       uniform="false" />
  </defs>
  <g
     inkscape:label="Layer 1"
     inkscape:groupmode="layer"
     id="layer1">
    <path
       id="path1"
       style="fill:#ffffff;stroke:#000000;stroke-width:3;stroke-linecap:butt;stroke-linejoin:miter;stroke-dasharray:none;stroke-opacity:1"
       d="m 134.11817,146.57797 c 2.67792,-6.65862 5.35556,-13.31827 7.20117,-18.45703 1.84561,-5.13876 2.85943,-8.7572 4.08984,-12.95508 1.23042,-4.19787 2.67802,-8.97422 3.76368,-18.708983 1.08565,-9.734767 1.80933,-24.425703 0.0723,-34.558599 -1.73707,-10.13289 -5.93498,-15.70631 -10.13281,-21.27929 3.90832,-3.11219 7.81517,-6.22435 10.5293,-10.82031 2.71412,-4.59597 4.23544,-10.67506 4.81445,-14.33008 0.57901,-3.65502 0.21735,-4.88679 -0.14453,-6.1171898 -42.05067,-0.36188 -84.101093,-0.72356 -106.103513,-0.14453 -22.00243,0.57903 -23.95694,2.1000998 -24.0293,5.5742198 -0.07236,3.47412 1.73644,8.90197 4.19726,12.95508 2.46083,4.0531 5.57337,6.73028 8.68555,9.4082 -2.4608,3.40169 -4.92197,6.80454 -6.76758,11.32812 -1.84561,4.52358 -3.0762,10.16741 -3.6914,18.12891 -0.6152,7.961502 -0.6142,18.239314 -0.65039,27.720703 -0.03619,9.481389 -0.10947,18.165729 0.57812,26.597659 0.68759,8.43192 2.13451,16.61053 3.58203,24.78906 4.34259,-8.03378 8.68546,-16.06772 12.52149,-23.41406 3.77269,-7.22505 7.05575,-13.78398 10.98437,-21.02149 l 8.13477,32.21485 10.2832,-32.33594 c 0.1525,0.78916 0.30354,1.57683 0.45313,2.36133 1.6285,8.54058 3.0768,16.79196 4.56054,23.74023 1.483747,6.94827 3.003536,12.59293 4.52344,18.23828 2.460796,-6.731 4.920126,-13.46164 7.308594,-19.93945 2.388467,-6.47781 4.705329,-12.70162 7.708984,-20.01172 0.0055,-0.0134 0.01208,-0.0276 0.01758,-0.041 l 8.126957,32.18164 10.67187,-33.55664 c 0.96219,2.42777 1.9447,4.89031 2.89649,7.27734 2.27987,5.71778 4.37877,11.00079 6.98437,16.79102 2.6056,5.79022 5.71789,12.08802 8.83008,18.38476 z" />
    <circle
       style="fill:#ffffff;stroke:#000000;stroke-width:3;stroke-dasharray:none"
       id="path2"
       cx="-133.06593"
       cy="-150.48595"
       r="9.119421"
       transform="scale(-1)" />
    <circle
       style="fill:#ffffff;stroke:#000000;stroke-width:3;stroke-dasharray:none"
       id="path2-8"
       cx="-82.141327"
       cy="-148.88823"
       r="9.119421"
       transform="scale(-1)" />
    <circle
       style="fill:#ffffff;stroke:#000000;stroke-width:3;stroke-dasharray:none"
       id="path2-8-1"
       cx="-32.141331"
       cy="-144.88823"
       r="9.119421"
       transform="scale(-1)" />
    <path
       style="fill:#ffffff;stroke:#000000;stroke-width:3;stroke-linecap:butt;stroke-linejoin:miter;stroke-dasharray:none;stroke-opacity:1"
       d="M 138.46038,40.184378 37.495367,36.710318"
       id="path4" />
    <path
       d="m 50.092156,64.365235 h 11.392009 v 12.373342 q -4.096003,3.413336 -9.984008,3.413336 -4.224003,0 -7.253339,-1.877335 -2.986668,-1.877334 -4.608003,-5.376004 -1.578668,-3.541336 -1.578668,-8.448006 0,-7.509339 3.413336,-11.733342 3.413336,-4.224003 9.984007,-4.224003 2.901336,0 5.120004,0.768 2.261335,0.725334 3.88267,2.005335 l -2.517335,4.309337 q -1.578668,-0.896001 -3.114669,-1.365335 -1.493335,-0.512 -3.285336,-0.469333 -2.133335,0.04267 -3.840003,1.194667 -1.664001,1.109334 -2.645335,3.456003 -0.938668,2.346668 -0.938668,6.058671 0,3.498669 1.024001,5.760004 1.066668,2.261335 2.730669,3.37067 1.706668,1.066667 3.584002,1.066667 1.536002,0 2.730669,-0.170667 1.194668,-0.213333 2.261335,-0.768 v -4.309337 h -6.357338 z m 26.282722,15.786678 q -3.200003,0 -5.461338,-1.194667 -2.218668,-1.237335 -3.626669,-3.413336 -1.365335,-2.176002 -2.005335,-5.034671 -0.640001,-2.858669 -0.640001,-6.186671 0,-3.328003 0.640001,-6.186671 0.64,-2.858669 2.005335,-5.034671 1.408001,-2.176001 3.626669,-3.370669 2.261335,-1.237334 5.461338,-1.237334 3.200002,0 5.41867,1.237334 2.261335,1.194668 3.62667,3.370669 1.408001,2.176002 2.048001,5.034671 0.640001,2.858668 0.640001,6.186671 0,3.328002 -0.640001,6.186671 -0.64,2.858669 -2.048001,5.034671 -1.365335,2.176001 -3.62667,3.413336 -2.218668,1.194667 -5.41867,1.194667 z m 0,-5.632004 q 2.304001,0 3.584002,-1.408001 1.322668,-1.450668 1.834668,-3.797336 0.554667,-2.346669 0.554667,-4.992004 0,-2.688002 -0.554667,-4.992004 -0.512,-2.346668 -1.834668,-3.754669 -1.280001,-1.450668 -3.584002,-1.450668 -2.304002,0 -3.62667,1.450668 -1.280001,1.408001 -1.834668,3.754669 -0.512,2.304002 -0.512,4.992004 0,2.645335 0.512,4.992004 0.554667,2.346668 1.834668,3.797336 1.322668,1.408001 3.62667,1.408001 z m 16.810714,4.949337 V 49.17589 h 5.717337 v 24.960019 h 13.952011 v 5.333337 z m 25.301388,0 V 49.17589 h 8.91734 q 2.68801,0 5.12001,0.768001 2.432,0.768 4.30933,2.432001 1.92,1.664002 2.98667,4.39467 1.10934,2.688002 1.10934,6.613339 0,4.992003 -1.62134,8.618673 -1.57867,3.584002 -4.65067,5.54667 -3.072,1.920002 -7.50934,1.920002 z m 5.63201,-5.418671 h 2.98667 q 2.38933,0 3.968,-0.938667 1.57867,-0.938668 2.47467,-2.474669 0.93866,-1.536001 1.32267,-3.413336 0.384,-1.877334 0.384,-3.712002 0,-4.352004 -2.17601,-6.613339 -2.13333,-2.304001 -5.76,-2.304001 h -3.2 z"
       id="text1"
       style="font-weight:bold;font-size:42.6667px;font-family:'0xProto Nerd Font';-inkscape-font-specification:'0xProto Nerd Font Bold';fill:#ffffff;stroke:#000000;stroke-width:3"
       aria-label="GOLD" />
  </g>
</svg>
