<?xml version="1.0" encoding="UTF-8" standalone="no"?>
<!-- Created with Inkscape (http://www.inkscape.org/) -->

<svg
   width="180"
   height="180"
   viewBox="0 0 180 180"
   version="1.1"
   id="svg1"
   inkscape:version="1.4.3 (0d15f75, 2025-12-25)"
   sodipodi:docname="excelent.svg"
   xmlns:inkscape="http://www.inkscape.org/namespaces/inkscape"
   xmlns:sodipodi="http://sodipodi.sourceforge.net/DTD/sodipodi-0.dtd"
   xmlns="http://www.w3.org/2000/svg"
   xmlns:svg="http://www.w3.org/2000/svg">
  <sodipodi:namedview
     id="namedview1"
     pagecolor="#ffffff"
     bordercolor="#000000"
     borderopacity="0.25"
     inkscape:showpageshadow="2"
     inkscape:pageopacity="0.0"
     inkscape:pagecheckerboard="true"
     inkscape:deskcolor="#d1d1d1"
     inkscape:document-units="px"
     inkscape:zoom="4.6055556"
     inkscape:cx="90.108564"
     inkscape:cy="86.743063"
     inkscape:window-width="1920"
     inkscape:window-height="1009"
     inkscape:window-x="-8"
     inkscape:window-y="-8"
     inkscape:window-maximized="1"
     inkscape:current-layer="layer1" />
  <defs
     id="defs1">
    <inkscape:path-effect
       effect="bspline"
       id="path-effect2"
       is_visible="true"
       lpeversion="1.3"
       weight="33.333333"
       steps="2"
       helper_size="0"
       apply_no_weight="true"
       apply_with_weight="true"
       only_selected="false"
       uniform="false" />
    <rect
       x="30.832328"
       y="26.924005"
       width="124.19783"
       height="117.90108"
       id="rect1" />
  </defs>
  <g
     inkscape:label="Layer 1"
     inkscape:groupmode="layer"
     id="layer1">
    <circle
       style="fill:#71e13f;fill-opacity:1;stroke:#000000;stroke-width:1.01174;stroke-dasharray:none"
       id="path1"
       cx="90"
       cy="90"
       r="89.494125" />
    <path
       style="fill:#ffffff;fill-opacity:1;stroke:#000000;stroke-width:1;stroke-dasharray:none"
       d="m 68.468033,41.90591 c -0.07238,-5.862485 -0.07238,-5.862485 -0.07238,-5.862485 -3.618818,0.723764 -7.237636,1.447527 -10.168901,3.727421 -2.931265,2.279894 -5.174887,6.115764 -6.332909,10.313638 -1.158023,4.197874 -1.230398,8.757494 -1.338964,13.534384 -0.108566,4.776889 -0.253315,9.770757 -0.434258,14.692398 -0.180943,4.921641 -0.398068,9.77076 -0.57901,16.284712 -0.180942,6.513952 -0.325692,14.692322 -0.398069,21.133862 -0.07238,6.44154 -0.07238,11.14591 1.737068,15.23521 1.809445,4.0893 5.428193,7.5633 9.58988,9.55365 4.161687,1.99035 8.866055,2.49698 14.909555,2.31603 6.0435,-0.18095 13.42574,-1.04945 20.482501,-1.77322 7.05676,-0.72376 13.78763,-1.30277 19.25209,-2.53318 5.46445,-1.23042 9.6622,-3.11217 11.76112,-5.8625 2.09891,-2.75034 2.09891,-6.36909 0.21709,-9.08322 -1.88183,-2.71413 -5.64532,-4.5235 -7.59948,-5.35583 -1.95416,-0.83232 -2.09892,-0.68757 -2.24367,-0.54282 4.2702,-1.73703 8.54041,-3.47407 10.7117,-5.68157 2.17129,-2.20751 2.24366,-4.88538 0.25327,-6.98431 -1.99039,-2.09893 -6.04338,-3.61881 -10.09646,-5.138708 4.34258,-1.158022 8.68517,-2.316044 10.92884,-4.270233 2.24367,-1.954189 2.38842,-4.704435 0.32565,-6.767175 -2.06277,-2.06274 -6.33289,-3.437863 -10.6031,-4.813014 3.61882,-0.579011 7.23764,-1.158023 9.30037,-3.112218 2.06273,-1.954194 2.56935,-5.283439 1.37512,-7.346173 -1.19424,-2.062734 -4.08924,-2.858858 -14.47543,-3.039795 C 104.58348,70.349827 86.706873,70.784077 68.829915,71.218335 68.685162,59.493365 68.54041,47.768395 68.468033,41.90591 Z"
       id="path2"
       inkscape:original-d="m 68.395657,36.043425 c 0,0 0,0 0,0 0,0 -7.237636,1.447528 -10.856454,2.171291 -2.243712,3.836024 -4.487334,7.671894 -6.731001,11.507841 -0.07238,4.559801 -0.144753,9.119421 -0.217129,13.679131 -0.144756,4.994069 -0.289505,9.987937 -0.434258,14.981906 -0.217133,4.849313 -0.434258,9.698432 -0.651387,14.547648 -0.144756,8.178688 -0.289506,16.357058 -0.434258,24.535588 0,4.70455 0,9.40892 0,14.11339 3.61889,3.47413 7.237635,6.94813 10.856453,10.42219 4.704557,0.50665 9.408926,1.01327 14.11339,1.5199 7.382536,-0.86853 14.764776,-1.73703 22.147165,-2.60554 6.731132,-0.57903 13.462002,-1.15803 20.193002,-1.73704 4.19791,-1.88182 8.39566,-3.76357 12.59349,-5.64535 0,-3.61889 0,-7.23764 0,-10.85646 -3.76365,-1.80944 -7.52714,-3.61881 -11.29071,-5.42822 -0.14476,0.14475 -0.43426,0.43426 -0.43426,0.43426 0,0 8.54041,-3.47407 12.81061,-5.2111 0.0724,-2.67798 0.14476,-5.35585 0.21713,-8.03378 -4.05316,-1.51993 -12.15923,-4.559708 -12.15923,-4.559708 0,0 8.68517,-2.316044 13.02775,-3.474065 0.14475,-2.750357 0.2895,-5.500603 0.43426,-8.250905 -4.27029,-1.375178 -12.81062,-4.125452 -12.81062,-4.125452 0,0 7.23764,-1.158022 10.85645,-1.737033 0.50665,-3.329379 1.01327,-6.658625 1.51991,-9.987937 -2.89511,-0.796156 -5.79011,-1.59228 -8.68517,-2.38842 -17.87731,0.434267 -53.630875,1.302775 -53.630875,1.302775 0,0 -0.289506,-23.44994 -0.434258,-35.17491 z"
       inkscape:path-effect="#path-effect2" />
  </g>
</svg>
